<mxfile host="Electron" agent="Mozilla/5.0 (Windows NT 10.0; Win64; x64) AppleWebKit/537.36 (KHTML, like Gecko) draw.io/26.0.9 Chrome/128.0.6613.186 Electron/32.2.5 Safari/537.36" version="26.0.9">
  <diagram name="Page-1" id="5LFkIaHSJ2khgg94fpgx">
    <mxGraphModel dx="6900" dy="3307" grid="1" gridSize="10" guides="1" tooltips="1" connect="1" arrows="1" fold="1" page="1" pageScale="1" pageWidth="850" pageHeight="1100" math="0" shadow="0">
      <root>
        <mxCell id="0" />
        <mxCell id="1" parent="0" />
        <mxCell id="Vpgx6mXPmqAcxmZILDP9-2" value="" style="rounded=0;whiteSpace=wrap;html=1;fillColor=none;" vertex="1" parent="1">
          <mxGeometry x="-194.45" y="55" width="234.45" height="355" as="geometry" />
        </mxCell>
        <mxCell id="gkNS_IapdHRCTGmgCiwo-108" style="edgeStyle=orthogonalEdgeStyle;rounded=0;orthogonalLoop=1;jettySize=auto;html=1;exitX=0.5;exitY=1;exitDx=0;exitDy=0;entryX=0.5;entryY=0;entryDx=0;entryDy=0;" parent="1" source="LL-gX-i_un-LDWt7gdUC-2" target="LL-gX-i_un-LDWt7gdUC-88" edge="1">
          <mxGeometry relative="1" as="geometry" />
        </mxCell>
        <mxCell id="LL-gX-i_un-LDWt7gdUC-2" value="start" style="ellipse;whiteSpace=wrap;html=1;" parent="1" vertex="1">
          <mxGeometry x="390" y="40" width="90" height="40" as="geometry" />
        </mxCell>
        <mxCell id="gkNS_IapdHRCTGmgCiwo-110" style="edgeStyle=orthogonalEdgeStyle;rounded=0;orthogonalLoop=1;jettySize=auto;html=1;exitX=0.5;exitY=1;exitDx=0;exitDy=0;" parent="1" source="LL-gX-i_un-LDWt7gdUC-3" edge="1">
          <mxGeometry relative="1" as="geometry">
            <mxPoint x="435" y="230" as="targetPoint" />
          </mxGeometry>
        </mxCell>
        <mxCell id="LL-gX-i_un-LDWt7gdUC-3" value="busAreActive = api.Master.buListActive()" style="rounded=0;whiteSpace=wrap;html=1;fillColor=#d80073;fontColor=#ffffff;strokeColor=#A50040;" parent="1" vertex="1">
          <mxGeometry x="343.75" y="170" width="182.5" height="40" as="geometry" />
        </mxCell>
        <mxCell id="gkNS_IapdHRCTGmgCiwo-67" style="edgeStyle=orthogonalEdgeStyle;rounded=0;orthogonalLoop=1;jettySize=auto;html=1;exitX=0.5;exitY=1;exitDx=0;exitDy=0;" parent="1" source="LL-gX-i_un-LDWt7gdUC-4" edge="1">
          <mxGeometry relative="1" as="geometry">
            <mxPoint x="434.9411764705883" y="430" as="targetPoint" />
          </mxGeometry>
        </mxCell>
        <mxCell id="gkNS_IapdHRCTGmgCiwo-104" style="edgeStyle=orthogonalEdgeStyle;rounded=0;orthogonalLoop=1;jettySize=auto;html=1;exitX=1;exitY=0.5;exitDx=0;exitDy=0;" parent="1" source="LL-gX-i_un-LDWt7gdUC-4" edge="1">
          <mxGeometry relative="1" as="geometry">
            <mxPoint x="680" y="359.57142857142867" as="targetPoint" />
          </mxGeometry>
        </mxCell>
        <mxCell id="LL-gX-i_un-LDWt7gdUC-4" value="orderRequest&lt;div&gt;in&lt;/div&gt;&lt;div&gt;orderTMSFromRequests&lt;br&gt;&lt;/div&gt;" style="rhombus;whiteSpace=wrap;html=1;" parent="1" vertex="1">
          <mxGeometry x="300.01" y="320" width="270" height="80" as="geometry" />
        </mxCell>
        <mxCell id="gkNS_IapdHRCTGmgCiwo-65" style="edgeStyle=orthogonalEdgeStyle;rounded=0;orthogonalLoop=1;jettySize=auto;html=1;exitX=0.5;exitY=1;exitDx=0;exitDy=0;" parent="1" source="LL-gX-i_un-LDWt7gdUC-7" edge="1">
          <mxGeometry relative="1" as="geometry">
            <mxPoint x="434.9411764705883" y="520" as="targetPoint" />
          </mxGeometry>
        </mxCell>
        <mxCell id="LL-gX-i_un-LDWt7gdUC-7" value="tmsOrder.SetShippingTypeCode(orderType: orderTypeParam)" style="rounded=0;whiteSpace=wrap;html=1;fillColor=none;" parent="1" vertex="1">
          <mxGeometry x="273.71999999999997" y="443" width="322.5" height="40" as="geometry" />
        </mxCell>
        <mxCell id="LL-gX-i_un-LDWt7gdUC-8" value="CMG" style="text;html=1;align=center;verticalAlign=middle;whiteSpace=wrap;rounded=0;" parent="1" vertex="1">
          <mxGeometry x="405" y="10" width="60" height="30" as="geometry" />
        </mxCell>
        <mxCell id="gkNS_IapdHRCTGmgCiwo-66" style="edgeStyle=orthogonalEdgeStyle;rounded=0;orthogonalLoop=1;jettySize=auto;html=1;exitX=0.5;exitY=1;exitDx=0;exitDy=0;" parent="1" source="LL-gX-i_un-LDWt7gdUC-10" edge="1">
          <mxGeometry relative="1" as="geometry">
            <mxPoint x="437.294117647059" y="600" as="targetPoint" />
          </mxGeometry>
        </mxCell>
        <mxCell id="LL-gX-i_un-LDWt7gdUC-10" value="tmsOrder.setDimensionForCMG(orderRequest)" style="rounded=0;whiteSpace=wrap;html=1;fillColor=#008a00;fontColor=#ffffff;strokeColor=#005700;" parent="1" vertex="1">
          <mxGeometry x="298.95" y="530" width="276.12" height="40" as="geometry" />
        </mxCell>
        <mxCell id="gkNS_IapdHRCTGmgCiwo-97" style="edgeStyle=orthogonalEdgeStyle;rounded=0;orthogonalLoop=1;jettySize=auto;html=1;exitX=0.5;exitY=1;exitDx=0;exitDy=0;" parent="1" source="LL-gX-i_un-LDWt7gdUC-11" edge="1">
          <mxGeometry relative="1" as="geometry">
            <mxPoint x="437.3333333333335" y="310" as="targetPoint" />
          </mxGeometry>
        </mxCell>
        <mxCell id="LL-gX-i_un-LDWt7gdUC-11" value="orderTMSFromRequests = transformData(req.orderRequests)" style="rounded=0;whiteSpace=wrap;html=1;" parent="1" vertex="1">
          <mxGeometry x="313.88" y="240" width="246.25" height="40" as="geometry" />
        </mxCell>
        <mxCell id="gkNS_IapdHRCTGmgCiwo-69" style="edgeStyle=orthogonalEdgeStyle;rounded=0;orthogonalLoop=1;jettySize=auto;html=1;exitX=0.5;exitY=1;exitDx=0;exitDy=0;" parent="1" source="LL-gX-i_un-LDWt7gdUC-12" edge="1">
          <mxGeometry relative="1" as="geometry">
            <mxPoint x="436.1176470588234" y="819.9999999999998" as="targetPoint" />
          </mxGeometry>
        </mxCell>
        <mxCell id="LL-gX-i_un-LDWt7gdUC-12" value="createOrderCommand = createOrderCommand(tmsOrder)" style="rounded=0;whiteSpace=wrap;html=1;" parent="1" vertex="1">
          <mxGeometry x="315.13" y="750" width="242.25" height="40" as="geometry" />
        </mxCell>
        <mxCell id="gkNS_IapdHRCTGmgCiwo-70" style="edgeStyle=orthogonalEdgeStyle;rounded=0;orthogonalLoop=1;jettySize=auto;html=1;exitX=0.5;exitY=1;exitDx=0;exitDy=0;" parent="1" source="LL-gX-i_un-LDWt7gdUC-13" edge="1">
          <mxGeometry relative="1" as="geometry">
            <mxPoint x="436.1176470588234" y="889.9999999999998" as="targetPoint" />
          </mxGeometry>
        </mxCell>
        <mxCell id="LL-gX-i_un-LDWt7gdUC-13" value="createOrderCommand.FareyeCustomerId&amp;nbsp;&lt;div&gt;= GenerateFareyeId(tmsOrder)&lt;/div&gt;" style="rounded=0;whiteSpace=wrap;html=1;" parent="1" vertex="1">
          <mxGeometry x="293.2" y="831" width="286.11" height="40" as="geometry" />
        </mxCell>
        <mxCell id="LL-gX-i_un-LDWt7gdUC-14" value="&lt;h1 style=&quot;margin-top: 0px;&quot;&gt;&lt;font style=&quot;font-size: 14px;&quot;&gt;Validate CMG somefields&lt;br&gt;&lt;/font&gt;&lt;/h1&gt;&lt;div&gt;&lt;font style=&quot;font-size: 14px;&quot;&gt;- &lt;/font&gt;&lt;font size=&quot;1&quot; style=&quot;&quot;&gt;Check request is not empty&lt;/font&gt;&lt;/div&gt;&lt;div&gt;&lt;font size=&quot;1&quot;&gt;- Check max length&lt;/font&gt;&lt;/div&gt;&lt;div&gt;&lt;font size=&quot;1&quot;&gt;- Check special character&lt;/font&gt;&lt;/div&gt;&lt;div&gt;&lt;font size=&quot;1&quot;&gt;- Check format data&lt;/font&gt;&lt;/div&gt;" style="text;html=1;whiteSpace=wrap;overflow=hidden;rounded=0;" parent="1" vertex="1">
          <mxGeometry x="-162.92" y="280" width="180" height="120" as="geometry" />
        </mxCell>
        <mxCell id="LL-gX-i_un-LDWt7gdUC-34" style="edgeStyle=orthogonalEdgeStyle;rounded=0;orthogonalLoop=1;jettySize=auto;html=1;" parent="1" source="LL-gX-i_un-LDWt7gdUC-16" edge="1">
          <mxGeometry relative="1" as="geometry">
            <mxPoint x="434.9850000000001" y="990" as="targetPoint" />
          </mxGeometry>
        </mxCell>
        <mxCell id="gkNS_IapdHRCTGmgCiwo-75" style="edgeStyle=orthogonalEdgeStyle;rounded=0;orthogonalLoop=1;jettySize=auto;html=1;exitX=1;exitY=0.5;exitDx=0;exitDy=0;entryX=0;entryY=0.5;entryDx=0;entryDy=0;endArrow=none;startFill=0;" parent="1" source="LL-gX-i_un-LDWt7gdUC-16" target="LL-gX-i_un-LDWt7gdUC-53" edge="1">
          <mxGeometry relative="1" as="geometry" />
        </mxCell>
        <mxCell id="LL-gX-i_un-LDWt7gdUC-16" value="order3plFromCustomer = api.Customer.GetOrderAndValidate3PLFrom&lt;div&gt;(tmsOrder.bu, tmsOrder.ReferenceNo)&lt;/div&gt;" style="rounded=0;whiteSpace=wrap;html=1;fillColor=#d80073;fontColor=#ffffff;strokeColor=#A50040;" parent="1" vertex="1">
          <mxGeometry x="291.93" y="900" width="286.11" height="50" as="geometry" />
        </mxCell>
        <mxCell id="LL-gX-i_un-LDWt7gdUC-33" style="edgeStyle=orthogonalEdgeStyle;rounded=0;orthogonalLoop=1;jettySize=auto;html=1;" parent="1" source="LL-gX-i_un-LDWt7gdUC-17" edge="1">
          <mxGeometry relative="1" as="geometry">
            <mxPoint x="433.63" y="750" as="targetPoint" />
          </mxGeometry>
        </mxCell>
        <mxCell id="gkNS_IapdHRCTGmgCiwo-73" style="edgeStyle=orthogonalEdgeStyle;rounded=0;orthogonalLoop=1;jettySize=auto;html=1;exitX=0;exitY=0.5;exitDx=0;exitDy=0;entryX=1;entryY=0.5;entryDx=0;entryDy=0;" parent="1" source="LL-gX-i_un-LDWt7gdUC-17" target="gkNS_IapdHRCTGmgCiwo-72" edge="1">
          <mxGeometry relative="1" as="geometry" />
        </mxCell>
        <mxCell id="LL-gX-i_un-LDWt7gdUC-17" value="validateRequest(tmsOrder, orderType: orderTypeParam)&lt;div&gt;is valid&lt;/div&gt;" style="rhombus;whiteSpace=wrap;html=1;" parent="1" vertex="1">
          <mxGeometry x="209.92000000000002" y="610" width="450.12" height="100" as="geometry" />
        </mxCell>
        <mxCell id="LL-gX-i_un-LDWt7gdUC-18" value="T" style="text;html=1;align=center;verticalAlign=middle;resizable=0;points=[];autosize=1;strokeColor=none;fillColor=none;" parent="1" vertex="1">
          <mxGeometry x="392.38" y="710" width="30" height="30" as="geometry" />
        </mxCell>
        <mxCell id="LL-gX-i_un-LDWt7gdUC-19" value="T" style="text;html=1;align=center;verticalAlign=middle;resizable=0;points=[];autosize=1;strokeColor=none;fillColor=none;" parent="1" vertex="1">
          <mxGeometry x="385" y="398" width="30" height="30" as="geometry" />
        </mxCell>
        <mxCell id="LL-gX-i_un-LDWt7gdUC-37" style="edgeStyle=orthogonalEdgeStyle;rounded=0;orthogonalLoop=1;jettySize=auto;html=1;" parent="1" source="LL-gX-i_un-LDWt7gdUC-21" edge="1">
          <mxGeometry relative="1" as="geometry">
            <mxPoint x="436.6300000000001" y="1170" as="targetPoint" />
          </mxGeometry>
        </mxCell>
        <mxCell id="gkNS_IapdHRCTGmgCiwo-68" style="edgeStyle=orthogonalEdgeStyle;rounded=0;orthogonalLoop=1;jettySize=auto;html=1;exitX=0;exitY=0.5;exitDx=0;exitDy=0;" parent="1" source="LL-gX-i_un-LDWt7gdUC-21" target="LL-gX-i_un-LDWt7gdUC-29" edge="1">
          <mxGeometry relative="1" as="geometry" />
        </mxCell>
        <mxCell id="LL-gX-i_un-LDWt7gdUC-21" value="order3plFromCustomer.status&lt;div&gt;=&amp;nbsp;&lt;span style=&quot;background-color: transparent; color: light-dark(rgb(0, 0, 0), rgb(255, 255, 255));&quot;&gt;301&lt;/span&gt;&lt;/div&gt;" style="rhombus;whiteSpace=wrap;html=1;" parent="1" vertex="1">
          <mxGeometry x="313.26" y="1000" width="246.74" height="90" as="geometry" />
        </mxCell>
        <mxCell id="LL-gX-i_un-LDWt7gdUC-28" value="T" style="text;html=1;align=center;verticalAlign=middle;resizable=0;points=[];autosize=1;strokeColor=none;fillColor=none;" parent="1" vertex="1">
          <mxGeometry x="283.88" y="1010" width="30" height="30" as="geometry" />
        </mxCell>
        <mxCell id="LL-gX-i_un-LDWt7gdUC-29" value="next setDataToView(order3plFromCustomer.statusText)" style="rounded=0;whiteSpace=wrap;html=1;fillColor=#0050ef;fontColor=#ffffff;strokeColor=#001DBC;" parent="1" vertex="1">
          <mxGeometry x="-118.68" y="1025" width="351.67" height="40" as="geometry" />
        </mxCell>
        <mxCell id="LL-gX-i_un-LDWt7gdUC-31" value="&lt;span style=&quot;text-wrap: wrap;&quot;&gt;order3plFromCustomer.order&lt;/span&gt;&lt;div style=&quot;text-wrap: wrap;&quot;&gt;is not null&lt;/div&gt;&lt;div style=&quot;text-wrap: wrap;&quot;&gt;&amp;amp;&amp;amp;&lt;/div&gt;&lt;div style=&quot;text-wrap: wrap;&quot;&gt;&lt;span style=&quot;background-color: transparent; color: light-dark(rgb(0, 0, 0), rgb(255, 255, 255));&quot;&gt;order3plFromCustomer&lt;/span&gt;.order.refTrackingNumber has data&lt;/div&gt;" style="text;html=1;align=center;verticalAlign=middle;resizable=0;points=[];autosize=1;strokeColor=none;fillColor=none;" parent="1" vertex="1">
          <mxGeometry x="276.02" y="1220" width="330" height="70" as="geometry" />
        </mxCell>
        <mxCell id="LL-gX-i_un-LDWt7gdUC-40" style="edgeStyle=orthogonalEdgeStyle;rounded=0;orthogonalLoop=1;jettySize=auto;html=1;" parent="1" source="LL-gX-i_un-LDWt7gdUC-32" edge="1">
          <mxGeometry relative="1" as="geometry">
            <mxPoint x="160" y="1255" as="targetPoint" />
          </mxGeometry>
        </mxCell>
        <mxCell id="LL-gX-i_un-LDWt7gdUC-85" style="edgeStyle=orthogonalEdgeStyle;rounded=0;orthogonalLoop=1;jettySize=auto;html=1;exitX=0.5;exitY=1;exitDx=0;exitDy=0;entryX=0.5;entryY=0;entryDx=0;entryDy=0;" parent="1" source="LL-gX-i_un-LDWt7gdUC-32" target="LL-gX-i_un-LDWt7gdUC-43" edge="1">
          <mxGeometry relative="1" as="geometry" />
        </mxCell>
        <mxCell id="LL-gX-i_un-LDWt7gdUC-32" value="" style="rhombus;whiteSpace=wrap;html=1;fillColor=none;" parent="1" vertex="1">
          <mxGeometry x="256.02" y="1180" width="361.96" height="150" as="geometry" />
        </mxCell>
        <mxCell id="LL-gX-i_un-LDWt7gdUC-38" value="F" style="text;html=1;align=center;verticalAlign=middle;resizable=0;points=[];autosize=1;strokeColor=none;fillColor=none;" parent="1" vertex="1">
          <mxGeometry x="440" y="1090" width="30" height="30" as="geometry" />
        </mxCell>
        <mxCell id="LL-gX-i_un-LDWt7gdUC-39" value="T" style="text;html=1;align=center;verticalAlign=middle;resizable=0;points=[];autosize=1;strokeColor=none;fillColor=none;" parent="1" vertex="1">
          <mxGeometry x="205" y="1218" width="30" height="30" as="geometry" />
        </mxCell>
        <mxCell id="WpTLxcSnzzfyFKcX9dQU-38" style="edgeStyle=orthogonalEdgeStyle;rounded=0;orthogonalLoop=1;jettySize=auto;html=1;exitX=0.5;exitY=1;exitDx=0;exitDy=0;" parent="1" source="LL-gX-i_un-LDWt7gdUC-43" edge="1">
          <mxGeometry relative="1" as="geometry">
            <mxPoint x="436.6666666666665" y="1470" as="targetPoint" />
          </mxGeometry>
        </mxCell>
        <mxCell id="LL-gX-i_un-LDWt7gdUC-43" value="order3pl = db.D3plorder.query(x =&amp;gt;&amp;nbsp;&lt;br&gt;&lt;div&gt;&lt;span style=&quot;background-color: transparent; color: light-dark(rgb(0, 0, 0), rgb(255, 255, 255));&quot;&gt;x.BuCode = tmsOrder.bu &amp;amp;&amp;amp;&amp;nbsp;&lt;/span&gt;&lt;/div&gt;&lt;div&gt;&lt;span style=&quot;background-color: transparent; color: light-dark(rgb(0, 0, 0), rgb(255, 255, 255));&quot;&gt;x.ReferenceNo = tmsOrder.ReferenceNo&lt;/span&gt;)&lt;/div&gt;" style="rounded=0;whiteSpace=wrap;html=1;" parent="1" vertex="1">
          <mxGeometry x="293.95" y="1380" width="286.11" height="50" as="geometry" />
        </mxCell>
        <mxCell id="WpTLxcSnzzfyFKcX9dQU-35" style="edgeStyle=orthogonalEdgeStyle;rounded=0;orthogonalLoop=1;jettySize=auto;html=1;exitX=0;exitY=0.5;exitDx=0;exitDy=0;" parent="1" source="LL-gX-i_un-LDWt7gdUC-44" edge="1">
          <mxGeometry relative="1" as="geometry">
            <mxPoint x="160" y="1515" as="targetPoint" />
          </mxGeometry>
        </mxCell>
        <mxCell id="WpTLxcSnzzfyFKcX9dQU-39" style="edgeStyle=orthogonalEdgeStyle;rounded=0;orthogonalLoop=1;jettySize=auto;html=1;exitX=0.5;exitY=1;exitDx=0;exitDy=0;" parent="1" source="LL-gX-i_un-LDWt7gdUC-44" edge="1">
          <mxGeometry relative="1" as="geometry">
            <mxPoint x="435.3333333333335" y="1580" as="targetPoint" />
          </mxGeometry>
        </mxCell>
        <mxCell id="LL-gX-i_un-LDWt7gdUC-44" value="&lt;span style=&quot;text-wrap: nowrap;&quot;&gt;order3pl is null&lt;/span&gt;" style="rhombus;whiteSpace=wrap;html=1;fillColor=none;" parent="1" vertex="1">
          <mxGeometry x="331.98" y="1480" width="206" height="70" as="geometry" />
        </mxCell>
        <mxCell id="LL-gX-i_un-LDWt7gdUC-69" style="edgeStyle=orthogonalEdgeStyle;rounded=0;orthogonalLoop=1;jettySize=auto;html=1;exitX=0;exitY=0.5;exitDx=0;exitDy=0;entryX=0.5;entryY=0;entryDx=0;entryDy=0;" parent="1" source="LL-gX-i_un-LDWt7gdUC-46" target="LL-gX-i_un-LDWt7gdUC-50" edge="1">
          <mxGeometry relative="1" as="geometry" />
        </mxCell>
        <mxCell id="LL-gX-i_un-LDWt7gdUC-70" style="edgeStyle=orthogonalEdgeStyle;rounded=0;orthogonalLoop=1;jettySize=auto;html=1;exitX=1;exitY=0.5;exitDx=0;exitDy=0;entryX=0.5;entryY=0;entryDx=0;entryDy=0;" parent="1" source="LL-gX-i_un-LDWt7gdUC-46" target="LL-gX-i_un-LDWt7gdUC-49" edge="1">
          <mxGeometry relative="1" as="geometry" />
        </mxCell>
        <mxCell id="LL-gX-i_un-LDWt7gdUC-46" value="bu is null" style="rhombus;whiteSpace=wrap;html=1;fillColor=none;" parent="1" vertex="1">
          <mxGeometry x="313.26000000000005" y="1690" width="239.03" height="60" as="geometry" />
        </mxCell>
        <mxCell id="WpTLxcSnzzfyFKcX9dQU-33" style="edgeStyle=orthogonalEdgeStyle;rounded=0;orthogonalLoop=1;jettySize=auto;html=1;exitX=0.5;exitY=1;exitDx=0;exitDy=0;" parent="1" source="LL-gX-i_un-LDWt7gdUC-48" edge="1">
          <mxGeometry relative="1" as="geometry">
            <mxPoint x="435.3333333333335" y="1680" as="targetPoint" />
          </mxGeometry>
        </mxCell>
        <mxCell id="LL-gX-i_un-LDWt7gdUC-48" value="bu = busAreActive.First(tmsOrder.bu)" style="rounded=0;whiteSpace=wrap;html=1;" parent="1" vertex="1">
          <mxGeometry x="291.92" y="1590" width="286.11" height="50" as="geometry" />
        </mxCell>
        <mxCell id="LL-gX-i_un-LDWt7gdUC-91" style="edgeStyle=orthogonalEdgeStyle;rounded=0;orthogonalLoop=1;jettySize=auto;html=1;exitX=0.5;exitY=1;exitDx=0;exitDy=0;" parent="1" source="LL-gX-i_un-LDWt7gdUC-49" target="LL-gX-i_un-LDWt7gdUC-59" edge="1">
          <mxGeometry relative="1" as="geometry" />
        </mxCell>
        <mxCell id="LL-gX-i_un-LDWt7gdUC-49" value="createOrderCommand.SetEmptyBu()" style="rounded=0;whiteSpace=wrap;html=1;" parent="1" vertex="1">
          <mxGeometry x="560" y="1770" width="286.11" height="40" as="geometry" />
        </mxCell>
        <mxCell id="LL-gX-i_un-LDWt7gdUC-90" style="edgeStyle=orthogonalEdgeStyle;rounded=0;orthogonalLoop=1;jettySize=auto;html=1;exitX=0.5;exitY=1;exitDx=0;exitDy=0;entryX=0.5;entryY=0;entryDx=0;entryDy=0;" parent="1" source="LL-gX-i_un-LDWt7gdUC-50" target="LL-gX-i_un-LDWt7gdUC-59" edge="1">
          <mxGeometry relative="1" as="geometry" />
        </mxCell>
        <mxCell id="LL-gX-i_un-LDWt7gdUC-50" value="createOrderCommand.SetBuDetail(bu)" style="rounded=0;whiteSpace=wrap;html=1;" parent="1" vertex="1">
          <mxGeometry x="17.08000000000004" y="1770" width="286.11" height="40" as="geometry" />
        </mxCell>
        <mxCell id="LL-gX-i_un-LDWt7gdUC-51" value="T" style="text;html=1;align=center;verticalAlign=middle;resizable=0;points=[];autosize=1;strokeColor=none;fillColor=none;" parent="1" vertex="1">
          <mxGeometry x="570.01" y="1690" width="30" height="30" as="geometry" />
        </mxCell>
        <mxCell id="LL-gX-i_un-LDWt7gdUC-52" value="F" style="text;html=1;align=center;verticalAlign=middle;resizable=0;points=[];autosize=1;strokeColor=none;fillColor=none;" parent="1" vertex="1">
          <mxGeometry x="253.88" y="1690" width="30" height="30" as="geometry" />
        </mxCell>
        <mxCell id="LL-gX-i_un-LDWt7gdUC-53" value="endpoint path:&lt;div&gt;/customer/api/orders3PL/getOrder3PL?buCode={bu}&amp;amp;referenceNumber={ref}&lt;/div&gt;" style="text;html=1;align=center;verticalAlign=middle;whiteSpace=wrap;rounded=0;fillColor=#d80073;fontColor=#ffffff;strokeColor=#A50040;" parent="1" vertex="1">
          <mxGeometry x="598.03" y="910" width="450" height="30" as="geometry" />
        </mxCell>
        <mxCell id="LL-gX-i_un-LDWt7gdUC-54" value="next setDataToView(order3plFromCustomer)" style="rounded=0;whiteSpace=wrap;html=1;fillColor=#0050ef;fontColor=#ffffff;strokeColor=#001DBC;" parent="1" vertex="1">
          <mxGeometry x="-110.00000000000001" y="1235" width="263.61" height="40" as="geometry" />
        </mxCell>
        <mxCell id="LL-gX-i_un-LDWt7gdUC-78" style="edgeStyle=orthogonalEdgeStyle;rounded=0;orthogonalLoop=1;jettySize=auto;html=1;exitX=0.5;exitY=1;exitDx=0;exitDy=0;" parent="1" source="LL-gX-i_un-LDWt7gdUC-57" edge="1">
          <mxGeometry relative="1" as="geometry">
            <mxPoint x="706.9230769230767" y="2152" as="targetPoint" />
          </mxGeometry>
        </mxCell>
        <mxCell id="LL-gX-i_un-LDWt7gdUC-57" value="orderTypeFrom3pl = api.3PL.GetOrderType(&lt;div&gt;buCode:&amp;nbsp;&lt;span style=&quot;background-color: transparent; color: light-dark(rgb(0, 0, 0), rgb(255, 255, 255));&quot;&gt;tmsOrder.bu, orderType: orderTypeParam&lt;/span&gt;&lt;span style=&quot;background-color: transparent; color: light-dark(rgb(0, 0, 0), rgb(255, 255, 255));&quot;&gt;)&lt;/span&gt;&lt;/div&gt;" style="rounded=0;whiteSpace=wrap;html=1;fillColor=#d80073;fontColor=#ffffff;strokeColor=#A50040;" parent="1" vertex="1">
          <mxGeometry x="564" y="2022" width="286.11" height="50" as="geometry" />
        </mxCell>
        <mxCell id="LL-gX-i_un-LDWt7gdUC-81" style="edgeStyle=orthogonalEdgeStyle;rounded=0;orthogonalLoop=1;jettySize=auto;html=1;exitX=0;exitY=0.5;exitDx=0;exitDy=0;entryX=0.5;entryY=0;entryDx=0;entryDy=0;" parent="1" source="LL-gX-i_un-LDWt7gdUC-59" target="LL-gX-i_un-LDWt7gdUC-60" edge="1">
          <mxGeometry relative="1" as="geometry" />
        </mxCell>
        <mxCell id="LL-gX-i_un-LDWt7gdUC-82" style="edgeStyle=orthogonalEdgeStyle;rounded=0;orthogonalLoop=1;jettySize=auto;html=1;exitX=1;exitY=0.5;exitDx=0;exitDy=0;entryX=0.5;entryY=0;entryDx=0;entryDy=0;" parent="1" source="LL-gX-i_un-LDWt7gdUC-59" target="LL-gX-i_un-LDWt7gdUC-57" edge="1">
          <mxGeometry relative="1" as="geometry" />
        </mxCell>
        <mxCell id="LL-gX-i_un-LDWt7gdUC-59" value="tmsOrder.carrierName == &quot;Fareye&quot;" style="rhombus;whiteSpace=wrap;html=1;fillColor=none;" parent="1" vertex="1">
          <mxGeometry x="296.61" y="1902" width="276.74" height="70" as="geometry" />
        </mxCell>
        <mxCell id="LL-gX-i_un-LDWt7gdUC-79" style="edgeStyle=orthogonalEdgeStyle;rounded=0;orthogonalLoop=1;jettySize=auto;html=1;exitX=0.5;exitY=1;exitDx=0;exitDy=0;" parent="1" source="LL-gX-i_un-LDWt7gdUC-60" edge="1">
          <mxGeometry relative="1" as="geometry">
            <mxPoint x="170" y="2142" as="targetPoint" />
          </mxGeometry>
        </mxCell>
        <mxCell id="LL-gX-i_un-LDWt7gdUC-60" value="orderTypeFrom3pl = api.3PL.GetOrderType(&lt;div&gt;alias:&amp;nbsp;&lt;span style=&quot;background-color: transparent; color: light-dark(rgb(0, 0, 0), rgb(255, 255, 255));&quot;&gt;tmsOrder.&lt;/span&gt;&lt;span style=&quot;background-color: transparent;&quot;&gt;carrierName&lt;/span&gt;&lt;span style=&quot;background-color: transparent; color: light-dark(rgb(0, 0, 0), rgb(255, 255, 255));&quot;&gt;,&amp;nbsp;&lt;/span&gt;&lt;/div&gt;&lt;div&gt;&lt;span style=&quot;background-color: transparent; color: light-dark(rgb(0, 0, 0), rgb(255, 255, 255));&quot;&gt;orderType: orderTypeParam&lt;/span&gt;&lt;span style=&quot;background-color: transparent; color: light-dark(rgb(0, 0, 0), rgb(255, 255, 255));&quot;&gt;)&lt;/span&gt;&lt;/div&gt;" style="rounded=0;whiteSpace=wrap;html=1;fillColor=#d80073;fontColor=#ffffff;strokeColor=#A50040;" parent="1" vertex="1">
          <mxGeometry x="26.389999999999986" y="2022" width="286.11" height="50" as="geometry" />
        </mxCell>
        <mxCell id="LL-gX-i_un-LDWt7gdUC-61" value="T" style="text;html=1;align=center;verticalAlign=middle;resizable=0;points=[];autosize=1;strokeColor=none;fillColor=none;" parent="1" vertex="1">
          <mxGeometry x="580.06" y="1892" width="30" height="30" as="geometry" />
        </mxCell>
        <mxCell id="LL-gX-i_un-LDWt7gdUC-62" value="&lt;div&gt;endpoint path:&lt;/div&gt;/3pl/api/OrderType3PL/?alias={alias}&amp;amp;orderType={orderType}&amp;amp;bucode={buCode}" style="text;html=1;align=center;verticalAlign=middle;resizable=0;points=[];autosize=1;strokeColor=#A50040;fillColor=#d80073;fontColor=#ffffff;" parent="1" vertex="1">
          <mxGeometry x="880" y="2027" width="450" height="40" as="geometry" />
        </mxCell>
        <mxCell id="LL-gX-i_un-LDWt7gdUC-64" value="T" style="text;html=1;align=center;verticalAlign=middle;resizable=0;points=[];autosize=1;strokeColor=none;fillColor=none;" parent="1" vertex="1">
          <mxGeometry x="-85.9" y="2165.5" width="30" height="30" as="geometry" />
        </mxCell>
        <mxCell id="LL-gX-i_un-LDWt7gdUC-77" style="edgeStyle=orthogonalEdgeStyle;rounded=0;orthogonalLoop=1;jettySize=auto;html=1;exitX=1;exitY=0.5;exitDx=0;exitDy=0;entryX=0;entryY=0.5;entryDx=0;entryDy=0;" parent="1" source="LL-gX-i_un-LDWt7gdUC-65" target="LL-gX-i_un-LDWt7gdUC-75" edge="1">
          <mxGeometry relative="1" as="geometry" />
        </mxCell>
        <mxCell id="LL-gX-i_un-LDWt7gdUC-98" style="edgeStyle=orthogonalEdgeStyle;rounded=0;orthogonalLoop=1;jettySize=auto;html=1;" parent="1" source="LL-gX-i_un-LDWt7gdUC-65" target="LL-gX-i_un-LDWt7gdUC-86" edge="1">
          <mxGeometry relative="1" as="geometry">
            <Array as="points">
              <mxPoint x="707" y="2330" />
              <mxPoint x="441" y="2330" />
            </Array>
          </mxGeometry>
        </mxCell>
        <mxCell id="LL-gX-i_un-LDWt7gdUC-65" value="orderTypeFrom3pl.OrderType3PLs is empty" style="rhombus;whiteSpace=wrap;html=1;fillColor=none;" parent="1" vertex="1">
          <mxGeometry x="517.59" y="2162" width="378.93" height="100" as="geometry" />
        </mxCell>
        <mxCell id="LL-gX-i_un-LDWt7gdUC-66" value="&lt;span style=&quot;text-wrap: wrap;&quot;&gt;orderTypeFrom3pl.OrderType3PLs is empty&lt;/span&gt;&lt;div style=&quot;text-wrap: wrap;&quot;&gt;||&lt;/div&gt;&lt;div style=&quot;text-wrap: wrap;&quot;&gt;orderTypeFrom3pl.OrderType3PLs&lt;/div&gt;&lt;div style=&quot;text-wrap: wrap;&quot;&gt;.NotFound(x =&amp;gt; x.bu =&amp;nbsp;&lt;span style=&quot;background-color: transparent; color: light-dark(rgb(0, 0, 0), rgb(255, 255, 255));&quot;&gt;tmsOrder.bu&lt;/span&gt;&lt;span style=&quot;background-color: transparent; color: light-dark(rgb(0, 0, 0), rgb(255, 255, 255));&quot;&gt;)&lt;/span&gt;&lt;/div&gt;" style="text;html=1;align=center;verticalAlign=middle;resizable=0;points=[];autosize=1;strokeColor=none;fillColor=none;" parent="1" vertex="1">
          <mxGeometry x="44.1" y="2192.5" width="260" height="70" as="geometry" />
        </mxCell>
        <mxCell id="LL-gX-i_un-LDWt7gdUC-76" style="edgeStyle=orthogonalEdgeStyle;rounded=0;orthogonalLoop=1;jettySize=auto;html=1;exitX=0;exitY=0.5;exitDx=0;exitDy=0;entryX=1;entryY=0.5;entryDx=0;entryDy=0;" parent="1" source="LL-gX-i_un-LDWt7gdUC-67" target="LL-gX-i_un-LDWt7gdUC-68" edge="1">
          <mxGeometry relative="1" as="geometry" />
        </mxCell>
        <mxCell id="LL-gX-i_un-LDWt7gdUC-97" style="edgeStyle=orthogonalEdgeStyle;rounded=0;orthogonalLoop=1;jettySize=auto;html=1;" parent="1" source="LL-gX-i_un-LDWt7gdUC-67" target="LL-gX-i_un-LDWt7gdUC-86" edge="1">
          <mxGeometry relative="1" as="geometry" />
        </mxCell>
        <mxCell id="LL-gX-i_un-LDWt7gdUC-67" value="" style="rhombus;whiteSpace=wrap;html=1;fillColor=none;" parent="1" vertex="1">
          <mxGeometry x="-46.81" y="2152" width="441.81" height="130" as="geometry" />
        </mxCell>
        <mxCell id="LL-gX-i_un-LDWt7gdUC-68" value="next setMessageValidateToView()" style="rounded=0;whiteSpace=wrap;html=1;fillColor=#0050ef;fontColor=#ffffff;strokeColor=#001DBC;" parent="1" vertex="1">
          <mxGeometry x="-350" y="2199.25" width="226.11" height="36.5" as="geometry" />
        </mxCell>
        <mxCell id="LL-gX-i_un-LDWt7gdUC-75" value="next setMessageValidateToView()" style="rounded=0;whiteSpace=wrap;html=1;fillColor=#0050ef;fontColor=#ffffff;strokeColor=#001DBC;" parent="1" vertex="1">
          <mxGeometry x="959.9999999999999" y="2193.75" width="226.11" height="36.5" as="geometry" />
        </mxCell>
        <mxCell id="LL-gX-i_un-LDWt7gdUC-80" value="F" style="text;html=1;align=center;verticalAlign=middle;resizable=0;points=[];autosize=1;strokeColor=none;fillColor=none;" parent="1" vertex="1">
          <mxGeometry x="275" y="1890" width="30" height="30" as="geometry" />
        </mxCell>
        <mxCell id="LL-gX-i_un-LDWt7gdUC-83" value="T" style="text;html=1;align=center;verticalAlign=middle;resizable=0;points=[];autosize=1;strokeColor=none;fillColor=none;" parent="1" vertex="1">
          <mxGeometry x="890" y="2180" width="30" height="30" as="geometry" />
        </mxCell>
        <mxCell id="LL-gX-i_un-LDWt7gdUC-84" value="F" style="text;html=1;align=center;verticalAlign=middle;resizable=0;points=[];autosize=1;strokeColor=none;fillColor=none;" parent="1" vertex="1">
          <mxGeometry x="375" y="1318" width="30" height="30" as="geometry" />
        </mxCell>
        <mxCell id="LL-gX-i_un-LDWt7gdUC-93" style="edgeStyle=orthogonalEdgeStyle;rounded=0;orthogonalLoop=1;jettySize=auto;html=1;exitX=0.5;exitY=1;exitDx=0;exitDy=0;entryX=0.5;entryY=0;entryDx=0;entryDy=0;" parent="1" source="LL-gX-i_un-LDWt7gdUC-86" target="LL-gX-i_un-LDWt7gdUC-92" edge="1">
          <mxGeometry relative="1" as="geometry" />
        </mxCell>
        <mxCell id="LL-gX-i_un-LDWt7gdUC-86" value="placeFromMaster = api.Master.GetPlace(&lt;div&gt;code: &quot;P3PL001&quot;,&lt;/div&gt;&lt;div&gt;buCode:&amp;nbsp;&lt;span style=&quot;background-color: transparent; color: light-dark(rgb(0, 0, 0), rgb(255, 255, 255));&quot;&gt;tmsOrder.bu,&lt;/span&gt;&lt;/div&gt;&lt;div&gt;&lt;span style=&quot;background-color: transparent; color: light-dark(rgb(0, 0, 0), rgb(255, 255, 255));&quot;&gt;providerCode: &quot;3PLP&quot;)&lt;/span&gt;&lt;/div&gt;" style="rounded=0;whiteSpace=wrap;html=1;fillColor=#d80073;fontColor=#ffffff;strokeColor=#A50040;" parent="1" vertex="1">
          <mxGeometry x="279.32" y="2372" width="323.39" height="80" as="geometry" />
        </mxCell>
        <mxCell id="LL-gX-i_un-LDWt7gdUC-87" value="endpoint path:&lt;div&gt;/master/api/places/getPlaceInfo?code={code}&amp;amp;buCode={buCode}&amp;amp;providerCode={providerCode}&lt;/div&gt;" style="text;html=1;align=center;verticalAlign=middle;resizable=0;points=[];autosize=1;strokeColor=#A50040;fillColor=#d80073;fontColor=#ffffff;" parent="1" vertex="1">
          <mxGeometry x="640" y="2392" width="540" height="40" as="geometry" />
        </mxCell>
        <mxCell id="gkNS_IapdHRCTGmgCiwo-109" style="edgeStyle=orthogonalEdgeStyle;rounded=0;orthogonalLoop=1;jettySize=auto;html=1;exitX=0.5;exitY=1;exitDx=0;exitDy=0;" parent="1" source="LL-gX-i_un-LDWt7gdUC-88" edge="1">
          <mxGeometry relative="1" as="geometry">
            <mxPoint x="435" y="160" as="targetPoint" />
          </mxGeometry>
        </mxCell>
        <mxCell id="LL-gX-i_un-LDWt7gdUC-88" value="orderTypeParam = &quot;CMG&quot;" style="rounded=0;whiteSpace=wrap;html=1;" parent="1" vertex="1">
          <mxGeometry x="353.84999999999997" y="110" width="162.24" height="30" as="geometry" />
        </mxCell>
        <mxCell id="LL-gX-i_un-LDWt7gdUC-89" value="endpointpatj:&lt;div&gt;/master/api/bus?isActive=1&lt;/div&gt;" style="text;html=1;align=center;verticalAlign=middle;resizable=0;points=[];autosize=1;strokeColor=#A50040;fillColor=#d80073;fontColor=#ffffff;" parent="1" vertex="1">
          <mxGeometry x="557.38" y="170" width="170" height="40" as="geometry" />
        </mxCell>
        <mxCell id="LL-gX-i_un-LDWt7gdUC-96" style="edgeStyle=orthogonalEdgeStyle;rounded=0;orthogonalLoop=1;jettySize=auto;html=1;exitX=0;exitY=0.5;exitDx=0;exitDy=0;entryX=1;entryY=0.5;entryDx=0;entryDy=0;" parent="1" source="LL-gX-i_un-LDWt7gdUC-92" target="LL-gX-i_un-LDWt7gdUC-94" edge="1">
          <mxGeometry relative="1" as="geometry" />
        </mxCell>
        <mxCell id="LL-gX-i_un-LDWt7gdUC-117" style="edgeStyle=orthogonalEdgeStyle;rounded=0;orthogonalLoop=1;jettySize=auto;html=1;exitX=0.5;exitY=1;exitDx=0;exitDy=0;entryX=0.5;entryY=0;entryDx=0;entryDy=0;" parent="1" source="LL-gX-i_un-LDWt7gdUC-92" target="LL-gX-i_un-LDWt7gdUC-101" edge="1">
          <mxGeometry relative="1" as="geometry" />
        </mxCell>
        <mxCell id="LL-gX-i_un-LDWt7gdUC-92" value="placeFromMaster is null" style="rhombus;whiteSpace=wrap;html=1;fillColor=none;" parent="1" vertex="1">
          <mxGeometry x="251.55000000000004" y="2520" width="378.93" height="100" as="geometry" />
        </mxCell>
        <mxCell id="LL-gX-i_un-LDWt7gdUC-94" value="next setMessageValidateToView()" style="rounded=0;whiteSpace=wrap;html=1;fillColor=#0050ef;fontColor=#ffffff;strokeColor=#001DBC;" parent="1" vertex="1">
          <mxGeometry x="-55.89999999999998" y="2551.75" width="226.11" height="36.5" as="geometry" />
        </mxCell>
        <mxCell id="LL-gX-i_un-LDWt7gdUC-95" value="T" style="text;html=1;align=center;verticalAlign=middle;resizable=0;points=[];autosize=1;strokeColor=none;fillColor=none;" parent="1" vertex="1">
          <mxGeometry x="220" y="2521.75" width="30" height="30" as="geometry" />
        </mxCell>
        <mxCell id="LL-gX-i_un-LDWt7gdUC-99" value="F" style="text;html=1;align=center;verticalAlign=middle;resizable=0;points=[];autosize=1;strokeColor=none;fillColor=none;" parent="1" vertex="1">
          <mxGeometry x="670" y="2262" width="30" height="30" as="geometry" />
        </mxCell>
        <mxCell id="LL-gX-i_un-LDWt7gdUC-100" value="F" style="text;html=1;align=center;verticalAlign=middle;resizable=0;points=[];autosize=1;strokeColor=none;fillColor=none;" parent="1" vertex="1">
          <mxGeometry x="115" y="2278" width="30" height="30" as="geometry" />
        </mxCell>
        <mxCell id="LL-gX-i_un-LDWt7gdUC-120" style="edgeStyle=orthogonalEdgeStyle;rounded=0;orthogonalLoop=1;jettySize=auto;html=1;exitX=0.5;exitY=1;exitDx=0;exitDy=0;" parent="1" source="LL-gX-i_un-LDWt7gdUC-101" edge="1">
          <mxGeometry relative="1" as="geometry">
            <mxPoint x="441.7142857142858" y="2760" as="targetPoint" />
          </mxGeometry>
        </mxCell>
        <mxCell id="LL-gX-i_un-LDWt7gdUC-101" value="createOrderCommand.SetPlaceDetail(placeFromMaster)" style="rounded=0;whiteSpace=wrap;html=1;" parent="1" vertex="1">
          <mxGeometry x="277.81" y="2680" width="326.42" height="36.5" as="geometry" />
        </mxCell>
        <mxCell id="LL-gX-i_un-LDWt7gdUC-121" style="edgeStyle=orthogonalEdgeStyle;rounded=0;orthogonalLoop=1;jettySize=auto;html=1;exitX=0.5;exitY=1;exitDx=0;exitDy=0;" parent="1" source="LL-gX-i_un-LDWt7gdUC-102" edge="1">
          <mxGeometry relative="1" as="geometry">
            <mxPoint x="436" y="2920" as="targetPoint" />
          </mxGeometry>
        </mxCell>
        <mxCell id="LL-gX-i_un-LDWt7gdUC-102" value="m3plCustomer = db.M3plcustomer.query(&lt;div&gt;x =&amp;gt; x.BuCode =&amp;nbsp;&lt;span style=&quot;background-color: transparent; color: light-dark(rgb(0, 0, 0), rgb(255, 255, 255));&quot;&gt;tmsOrder.bu&lt;/span&gt;&lt;/div&gt;&lt;div&gt;x.CustomerId = createOrderCommand.FareyeCustomerId)&lt;/div&gt;" style="rounded=0;whiteSpace=wrap;html=1;" parent="1" vertex="1">
          <mxGeometry x="261.28999999999996" y="2770" width="350.68" height="80" as="geometry" />
        </mxCell>
        <mxCell id="LL-gX-i_un-LDWt7gdUC-112" style="edgeStyle=orthogonalEdgeStyle;rounded=0;orthogonalLoop=1;jettySize=auto;html=1;exitX=1;exitY=0.5;exitDx=0;exitDy=0;entryX=0.5;entryY=0;entryDx=0;entryDy=0;" parent="1" source="LL-gX-i_un-LDWt7gdUC-104" target="LL-gX-i_un-LDWt7gdUC-106" edge="1">
          <mxGeometry relative="1" as="geometry" />
        </mxCell>
        <mxCell id="LL-gX-i_un-LDWt7gdUC-124" style="edgeStyle=orthogonalEdgeStyle;rounded=0;orthogonalLoop=1;jettySize=auto;html=1;exitX=0;exitY=0.5;exitDx=0;exitDy=0;entryX=0.5;entryY=0;entryDx=0;entryDy=0;" parent="1" source="LL-gX-i_un-LDWt7gdUC-104" target="LL-gX-i_un-LDWt7gdUC-123" edge="1">
          <mxGeometry relative="1" as="geometry" />
        </mxCell>
        <mxCell id="LL-gX-i_un-LDWt7gdUC-104" value="m3plCustomer is null&lt;div&gt;||&lt;/div&gt;&lt;div&gt;m3plCustomer.CustomerCode is null&lt;/div&gt;" style="rhombus;whiteSpace=wrap;html=1;fillColor=none;" parent="1" vertex="1">
          <mxGeometry x="250.00000000000006" y="2930" width="378.93" height="100" as="geometry" />
        </mxCell>
        <mxCell id="LL-gX-i_un-LDWt7gdUC-105" value="T" style="text;html=1;align=center;verticalAlign=middle;resizable=0;points=[];autosize=1;strokeColor=none;fillColor=none;" parent="1" vertex="1">
          <mxGeometry x="630.48" y="2950" width="30" height="30" as="geometry" />
        </mxCell>
        <mxCell id="LL-gX-i_un-LDWt7gdUC-113" style="edgeStyle=orthogonalEdgeStyle;rounded=0;orthogonalLoop=1;jettySize=auto;html=1;exitX=0.5;exitY=1;exitDx=0;exitDy=0;entryX=0.5;entryY=0;entryDx=0;entryDy=0;" parent="1" source="LL-gX-i_un-LDWt7gdUC-106" target="LL-gX-i_un-LDWt7gdUC-107" edge="1">
          <mxGeometry relative="1" as="geometry" />
        </mxCell>
        <mxCell id="LL-gX-i_un-LDWt7gdUC-106" value="genAutoNumber = api.Master.GetAutoNumber(&lt;div&gt;buCode:&amp;nbsp;&lt;span style=&quot;background-color: transparent; color: light-dark(rgb(0, 0, 0), rgb(255, 255, 255));&quot;&gt;tmsOrder.bu&lt;/span&gt;&lt;span style=&quot;background-color: transparent; color: light-dark(rgb(0, 0, 0), rgb(255, 255, 255));&quot;&gt;,&lt;/span&gt;&lt;/div&gt;&lt;div&gt;sequenceCode: &quot;CUSTOMER_CODE&quot;)&lt;/div&gt;" style="rounded=0;whiteSpace=wrap;html=1;fillColor=#d80073;fontColor=#ffffff;strokeColor=#A50040;" parent="1" vertex="1">
          <mxGeometry x="598.03" y="3060" width="361.97" height="70" as="geometry" />
        </mxCell>
        <mxCell id="LL-gX-i_un-LDWt7gdUC-111" style="edgeStyle=orthogonalEdgeStyle;rounded=0;orthogonalLoop=1;jettySize=auto;html=1;exitX=1;exitY=0.5;exitDx=0;exitDy=0;entryX=0;entryY=0.5;entryDx=0;entryDy=0;" parent="1" source="LL-gX-i_un-LDWt7gdUC-107" target="LL-gX-i_un-LDWt7gdUC-109" edge="1">
          <mxGeometry relative="1" as="geometry" />
        </mxCell>
        <mxCell id="LL-gX-i_un-LDWt7gdUC-115" style="edgeStyle=orthogonalEdgeStyle;rounded=0;orthogonalLoop=1;jettySize=auto;html=1;exitX=0.5;exitY=1;exitDx=0;exitDy=0;entryX=0.5;entryY=0;entryDx=0;entryDy=0;" parent="1" source="LL-gX-i_un-LDWt7gdUC-107" target="LL-gX-i_un-LDWt7gdUC-114" edge="1">
          <mxGeometry relative="1" as="geometry" />
        </mxCell>
        <mxCell id="LL-gX-i_un-LDWt7gdUC-107" value="getAutoNumber.status &amp;gt; 0" style="rhombus;whiteSpace=wrap;html=1;fillColor=none;" parent="1" vertex="1">
          <mxGeometry x="590" y="3190" width="378.93" height="100" as="geometry" />
        </mxCell>
        <mxCell id="LL-gX-i_un-LDWt7gdUC-108" value="&lt;div&gt;endpont path:&lt;/div&gt;/master/api/sequences/genNumber?buCode={buCode}&amp;amp;sequenceCode={sequenceCode}" style="text;html=1;align=center;verticalAlign=middle;resizable=0;points=[];autosize=1;strokeColor=#A50040;fillColor=#d80073;fontColor=#ffffff;" parent="1" vertex="1">
          <mxGeometry x="990" y="3075" width="500" height="40" as="geometry" />
        </mxCell>
        <mxCell id="LL-gX-i_un-LDWt7gdUC-109" value="next setValidateMessageToView()" style="rounded=0;whiteSpace=wrap;html=1;fillColor=#0050ef;fontColor=#ffffff;strokeColor=#001DBC;" parent="1" vertex="1">
          <mxGeometry x="1050" y="3221.75" width="326.42" height="36.5" as="geometry" />
        </mxCell>
        <mxCell id="LL-gX-i_un-LDWt7gdUC-110" value="T" style="text;html=1;align=center;verticalAlign=middle;resizable=0;points=[];autosize=1;strokeColor=none;fillColor=none;" parent="1" vertex="1">
          <mxGeometry x="965" y="3188" width="30" height="30" as="geometry" />
        </mxCell>
        <mxCell id="WpTLxcSnzzfyFKcX9dQU-32" style="edgeStyle=orthogonalEdgeStyle;rounded=0;orthogonalLoop=1;jettySize=auto;html=1;exitX=0;exitY=0.5;exitDx=0;exitDy=0;" parent="1" source="LL-gX-i_un-LDWt7gdUC-114" edge="1">
          <mxGeometry relative="1" as="geometry">
            <mxPoint x="440" y="3450" as="targetPoint" />
          </mxGeometry>
        </mxCell>
        <mxCell id="LL-gX-i_un-LDWt7gdUC-114" value="createOrderCommand.customerCode&amp;nbsp;&lt;div&gt;=&amp;nbsp;genAutoNumber.sequenceNumber&lt;/div&gt;" style="rounded=0;whiteSpace=wrap;html=1;" parent="1" vertex="1">
          <mxGeometry x="615.8" y="3340" width="326.42" height="36.5" as="geometry" />
        </mxCell>
        <mxCell id="LL-gX-i_un-LDWt7gdUC-116" value="F" style="text;html=1;align=center;verticalAlign=middle;resizable=0;points=[];autosize=1;strokeColor=none;fillColor=none;" parent="1" vertex="1">
          <mxGeometry x="715" y="3290" width="30" height="30" as="geometry" />
        </mxCell>
        <mxCell id="LL-gX-i_un-LDWt7gdUC-118" value="F" style="text;html=1;align=center;verticalAlign=middle;resizable=0;points=[];autosize=1;strokeColor=none;fillColor=none;" parent="1" vertex="1">
          <mxGeometry x="385" y="2618" width="30" height="30" as="geometry" />
        </mxCell>
        <mxCell id="WpTLxcSnzzfyFKcX9dQU-31" style="edgeStyle=orthogonalEdgeStyle;rounded=0;orthogonalLoop=1;jettySize=auto;html=1;exitX=1;exitY=0.5;exitDx=0;exitDy=0;entryX=0.5;entryY=0;entryDx=0;entryDy=0;" parent="1" source="LL-gX-i_un-LDWt7gdUC-123" target="LL-gX-i_un-LDWt7gdUC-127" edge="1">
          <mxGeometry relative="1" as="geometry" />
        </mxCell>
        <mxCell id="LL-gX-i_un-LDWt7gdUC-123" value="createOrderCommand.customerCode&amp;nbsp;&lt;div&gt;= m3plCustomer.CustomerCode&lt;/div&gt;" style="rounded=0;whiteSpace=wrap;html=1;" parent="1" vertex="1">
          <mxGeometry x="-46.81000000000007" y="3340" width="326.42" height="36.5" as="geometry" />
        </mxCell>
        <mxCell id="LL-gX-i_un-LDWt7gdUC-125" value="F" style="text;html=1;align=center;verticalAlign=middle;resizable=0;points=[];autosize=1;strokeColor=none;fillColor=none;" parent="1" vertex="1">
          <mxGeometry x="185" y="2938" width="30" height="30" as="geometry" />
        </mxCell>
        <mxCell id="LL-gX-i_un-LDWt7gdUC-142" style="edgeStyle=orthogonalEdgeStyle;rounded=0;orthogonalLoop=1;jettySize=auto;html=1;exitX=0.5;exitY=1;exitDx=0;exitDy=0;" parent="1" source="LL-gX-i_un-LDWt7gdUC-126" edge="1">
          <mxGeometry relative="1" as="geometry">
            <mxPoint x="779.3333333333335" y="3640" as="targetPoint" />
          </mxGeometry>
        </mxCell>
        <mxCell id="LL-gX-i_un-LDWt7gdUC-126" value="requestOfDynamicSelection = PreparePayload(tmsOrder)" style="rounded=0;whiteSpace=wrap;html=1;" parent="1" vertex="1">
          <mxGeometry x="616.25" y="3570" width="326.42" height="36.5" as="geometry" />
        </mxCell>
        <mxCell id="LL-gX-i_un-LDWt7gdUC-140" style="edgeStyle=orthogonalEdgeStyle;rounded=0;orthogonalLoop=1;jettySize=auto;html=1;exitX=0;exitY=0.5;exitDx=0;exitDy=0;entryX=0.5;entryY=0;entryDx=0;entryDy=0;" parent="1" source="LL-gX-i_un-LDWt7gdUC-127" target="LL-gX-i_un-LDWt7gdUC-138" edge="1">
          <mxGeometry relative="1" as="geometry" />
        </mxCell>
        <mxCell id="LL-gX-i_un-LDWt7gdUC-141" style="edgeStyle=orthogonalEdgeStyle;rounded=0;orthogonalLoop=1;jettySize=auto;html=1;exitX=1;exitY=0.5;exitDx=0;exitDy=0;entryX=0.5;entryY=0;entryDx=0;entryDy=0;" parent="1" source="LL-gX-i_un-LDWt7gdUC-127" target="LL-gX-i_un-LDWt7gdUC-126" edge="1">
          <mxGeometry relative="1" as="geometry" />
        </mxCell>
        <mxCell id="LL-gX-i_un-LDWt7gdUC-127" value="tmsOrder.carrierName = &quot;Fareye&quot;" style="rhombus;whiteSpace=wrap;html=1;fillColor=none;" parent="1" vertex="1">
          <mxGeometry x="251.55000000000004" y="3450" width="378.93" height="100" as="geometry" />
        </mxCell>
        <mxCell id="LL-gX-i_un-LDWt7gdUC-128" value="T" style="text;html=1;align=center;verticalAlign=middle;resizable=0;points=[];autosize=1;strokeColor=none;fillColor=none;" parent="1" vertex="1">
          <mxGeometry x="615" y="3448" width="30" height="30" as="geometry" />
        </mxCell>
        <mxCell id="LL-gX-i_un-LDWt7gdUC-143" style="edgeStyle=orthogonalEdgeStyle;rounded=0;orthogonalLoop=1;jettySize=auto;html=1;exitX=0.5;exitY=1;exitDx=0;exitDy=0;" parent="1" source="LL-gX-i_un-LDWt7gdUC-129" edge="1">
          <mxGeometry relative="1" as="geometry">
            <mxPoint x="779.3333333333335" y="3710" as="targetPoint" />
          </mxGeometry>
        </mxCell>
        <mxCell id="LL-gX-i_un-LDWt7gdUC-129" value="dynamicSelection = api.3PL.DynamicSelection(requestOfDynamicSelection)" style="rounded=0;whiteSpace=wrap;html=1;fillColor=#d80073;fontColor=#ffffff;strokeColor=#A50040;" parent="1" vertex="1">
          <mxGeometry x="616.26" y="3643.5" width="326.42" height="36.5" as="geometry" />
        </mxCell>
        <mxCell id="LL-gX-i_un-LDWt7gdUC-130" value="endpoint path:&lt;div&gt;/3pl/api/TMS3PLDynamicSelection&lt;/div&gt;" style="text;html=1;align=center;verticalAlign=middle;resizable=0;points=[];autosize=1;strokeColor=#A50040;fillColor=#d80073;fontColor=#ffffff;" parent="1" vertex="1">
          <mxGeometry x="976.11" y="3640" width="210" height="40" as="geometry" />
        </mxCell>
        <mxCell id="LL-gX-i_un-LDWt7gdUC-136" style="edgeStyle=orthogonalEdgeStyle;rounded=0;orthogonalLoop=1;jettySize=auto;html=1;exitX=0;exitY=0.5;exitDx=0;exitDy=0;entryX=0.5;entryY=0;entryDx=0;entryDy=0;" parent="1" source="LL-gX-i_un-LDWt7gdUC-131" target="LL-gX-i_un-LDWt7gdUC-132" edge="1">
          <mxGeometry relative="1" as="geometry" />
        </mxCell>
        <mxCell id="LL-gX-i_un-LDWt7gdUC-131" value="dynamicSelection.status &amp;gt; 0" style="rhombus;whiteSpace=wrap;html=1;fillColor=none;" parent="1" vertex="1">
          <mxGeometry x="590.01" y="3720" width="378.93" height="100" as="geometry" />
        </mxCell>
        <mxCell id="LL-gX-i_un-LDWt7gdUC-132" value="createOrderCommand.SetDynamicSelectionDetail(dynamicSelection)&lt;div&gt;createOrderCommand.VendorCarrierName = dynamicSelection.CarrierAlias&lt;br&gt;&lt;/div&gt;" style="rounded=0;whiteSpace=wrap;html=1;" parent="1" vertex="1">
          <mxGeometry x="277.81" y="3840" width="420" height="70" as="geometry" />
        </mxCell>
        <mxCell id="LL-gX-i_un-LDWt7gdUC-133" value="createOrderCommand.SetDynamicSelectionIsFail(dynamicSelection)" style="rounded=0;whiteSpace=wrap;html=1;" parent="1" vertex="1">
          <mxGeometry x="840" y="3850" width="380" height="36.5" as="geometry" />
        </mxCell>
        <mxCell id="LL-gX-i_un-LDWt7gdUC-134" value="T" style="text;html=1;align=center;verticalAlign=middle;resizable=0;points=[];autosize=1;strokeColor=none;fillColor=none;" parent="1" vertex="1">
          <mxGeometry x="915" y="3728" width="30" height="30" as="geometry" />
        </mxCell>
        <mxCell id="LL-gX-i_un-LDWt7gdUC-135" style="edgeStyle=orthogonalEdgeStyle;rounded=0;orthogonalLoop=1;jettySize=auto;html=1;exitX=1;exitY=0.5;exitDx=0;exitDy=0;entryX=0.569;entryY=0.003;entryDx=0;entryDy=0;entryPerimeter=0;" parent="1" source="LL-gX-i_un-LDWt7gdUC-131" target="LL-gX-i_un-LDWt7gdUC-133" edge="1">
          <mxGeometry relative="1" as="geometry" />
        </mxCell>
        <mxCell id="LL-gX-i_un-LDWt7gdUC-137" value="F" style="text;html=1;align=center;verticalAlign=middle;resizable=0;points=[];autosize=1;strokeColor=none;fillColor=none;" parent="1" vertex="1">
          <mxGeometry x="548.03" y="3728" width="30" height="30" as="geometry" />
        </mxCell>
        <mxCell id="LL-gX-i_un-LDWt7gdUC-138" value="&lt;div&gt;createOrderCommand.VendorCarrierName =&amp;nbsp;&lt;span style=&quot;background-color: transparent; color: light-dark(rgb(0, 0, 0), rgb(255, 255, 255));&quot;&gt;tmsOrder.carrierName&lt;/span&gt;&lt;br&gt;&lt;/div&gt;" style="rounded=0;whiteSpace=wrap;html=1;" parent="1" vertex="1">
          <mxGeometry x="-235" y="3860" width="405" height="30" as="geometry" />
        </mxCell>
        <mxCell id="LL-gX-i_un-LDWt7gdUC-139" value="F" style="text;html=1;align=center;verticalAlign=middle;resizable=0;points=[];autosize=1;strokeColor=none;fillColor=none;" parent="1" vertex="1">
          <mxGeometry x="205" y="3458" width="30" height="30" as="geometry" />
        </mxCell>
        <mxCell id="LL-gX-i_un-LDWt7gdUC-149" style="edgeStyle=orthogonalEdgeStyle;rounded=0;orthogonalLoop=1;jettySize=auto;html=1;exitX=0.5;exitY=1;exitDx=0;exitDy=0;entryX=0.5;entryY=0;entryDx=0;entryDy=0;" parent="1" source="LL-gX-i_un-LDWt7gdUC-144" target="LL-gX-i_un-LDWt7gdUC-150" edge="1">
          <mxGeometry relative="1" as="geometry">
            <mxPoint x="454.53352941176485" y="4140" as="targetPoint" />
          </mxGeometry>
        </mxCell>
        <mxCell id="LL-gX-i_un-LDWt7gdUC-144" value="serviceTypes = api.3PL.GetServiceTypeIsActive()" style="rounded=0;whiteSpace=wrap;html=1;fillColor=#d80073;fontColor=#ffffff;strokeColor=#A50040;" parent="1" vertex="1">
          <mxGeometry x="264.99999999999994" y="4060" width="380" height="36.5" as="geometry" />
        </mxCell>
        <mxCell id="WpTLxcSnzzfyFKcX9dQU-29" style="edgeStyle=orthogonalEdgeStyle;rounded=0;orthogonalLoop=1;jettySize=auto;html=1;exitX=0.5;exitY=1;exitDx=0;exitDy=0;" parent="1" source="LL-gX-i_un-LDWt7gdUC-150" edge="1">
          <mxGeometry relative="1" as="geometry">
            <mxPoint x="455.3333333333335" y="4260" as="targetPoint" />
          </mxGeometry>
        </mxCell>
        <mxCell id="LL-gX-i_un-LDWt7gdUC-150" value="serviceTypeConfigs = api.3PL.GetServiceTypeWith3PL()" style="rounded=0;whiteSpace=wrap;html=1;fillColor=#d80073;fontColor=#ffffff;strokeColor=#A50040;" parent="1" vertex="1">
          <mxGeometry x="264.99999999999994" y="4180" width="380" height="36.5" as="geometry" />
        </mxCell>
        <mxCell id="LL-gX-i_un-LDWt7gdUC-151" value="endpoint path:&lt;div&gt;/3pl/api/TMS3PLServiceType/?isActive={isActive}&amp;amp;serviceTypeCode={serviceTypeCode}&amp;amp;serviceTypeName={serviceTypeName}&quot;&lt;/div&gt;" style="text;html=1;align=center;verticalAlign=middle;resizable=0;points=[];autosize=1;strokeColor=#A50040;fillColor=#d80073;fontColor=#ffffff;" parent="1" vertex="1">
          <mxGeometry x="700" y="4055" width="710" height="40" as="geometry" />
        </mxCell>
        <mxCell id="LL-gX-i_un-LDWt7gdUC-152" style="edgeStyle=orthogonalEdgeStyle;rounded=0;orthogonalLoop=1;jettySize=auto;html=1;exitX=0.5;exitY=1;exitDx=0;exitDy=0;entryX=0.584;entryY=0.009;entryDx=0;entryDy=0;entryPerimeter=0;" parent="1" source="LL-gX-i_un-LDWt7gdUC-132" target="LL-gX-i_un-LDWt7gdUC-144" edge="1">
          <mxGeometry relative="1" as="geometry" />
        </mxCell>
        <mxCell id="LL-gX-i_un-LDWt7gdUC-153" style="edgeStyle=orthogonalEdgeStyle;rounded=0;orthogonalLoop=1;jettySize=auto;html=1;exitX=0.5;exitY=1;exitDx=0;exitDy=0;entryX=0.586;entryY=0.03;entryDx=0;entryDy=0;entryPerimeter=0;" parent="1" source="LL-gX-i_un-LDWt7gdUC-138" target="LL-gX-i_un-LDWt7gdUC-144" edge="1">
          <mxGeometry relative="1" as="geometry" />
        </mxCell>
        <mxCell id="LL-gX-i_un-LDWt7gdUC-154" style="edgeStyle=orthogonalEdgeStyle;rounded=0;orthogonalLoop=1;jettySize=auto;html=1;exitX=0.5;exitY=1;exitDx=0;exitDy=0;entryX=0.586;entryY=-0.034;entryDx=0;entryDy=0;entryPerimeter=0;" parent="1" source="LL-gX-i_un-LDWt7gdUC-133" target="LL-gX-i_un-LDWt7gdUC-144" edge="1">
          <mxGeometry relative="1" as="geometry" />
        </mxCell>
        <mxCell id="LL-gX-i_un-LDWt7gdUC-155" value="endpoint path:&lt;div&gt;/3pl/api/ServiceTypeConfigQuery/serviceTypeWith3PL&lt;/div&gt;" style="text;html=1;align=center;verticalAlign=middle;resizable=0;points=[];autosize=1;strokeColor=#A50040;fillColor=#d80073;fontColor=#ffffff;" parent="1" vertex="1">
          <mxGeometry x="680" y="4176.5" width="310" height="40" as="geometry" />
        </mxCell>
        <mxCell id="LL-gX-i_un-LDWt7gdUC-163" style="edgeStyle=orthogonalEdgeStyle;rounded=0;orthogonalLoop=1;jettySize=auto;html=1;exitX=1;exitY=0.5;exitDx=0;exitDy=0;entryX=0.5;entryY=0;entryDx=0;entryDy=0;" parent="1" source="LL-gX-i_un-LDWt7gdUC-157" target="LL-gX-i_un-LDWt7gdUC-159" edge="1">
          <mxGeometry relative="1" as="geometry" />
        </mxCell>
        <mxCell id="LL-gX-i_un-LDWt7gdUC-164" style="edgeStyle=orthogonalEdgeStyle;rounded=0;orthogonalLoop=1;jettySize=auto;html=1;exitX=0;exitY=0.5;exitDx=0;exitDy=0;entryX=0.5;entryY=0;entryDx=0;entryDy=0;" parent="1" source="LL-gX-i_un-LDWt7gdUC-157" target="LL-gX-i_un-LDWt7gdUC-158" edge="1">
          <mxGeometry relative="1" as="geometry" />
        </mxCell>
        <mxCell id="LL-gX-i_un-LDWt7gdUC-157" value="&lt;div&gt;serviceType.isInvalid = false&lt;/div&gt;" style="rhombus;whiteSpace=wrap;html=1;fillColor=none;" parent="1" vertex="1">
          <mxGeometry x="214.16000000000003" y="4350" width="478.71" height="110" as="geometry" />
        </mxCell>
        <mxCell id="WpTLxcSnzzfyFKcX9dQU-27" style="edgeStyle=orthogonalEdgeStyle;rounded=0;orthogonalLoop=1;jettySize=auto;html=1;exitX=1;exitY=0.5;exitDx=0;exitDy=0;entryX=0.5;entryY=0;entryDx=0;entryDy=0;" parent="1" source="LL-gX-i_un-LDWt7gdUC-158" target="WpTLxcSnzzfyFKcX9dQU-2" edge="1">
          <mxGeometry relative="1" as="geometry" />
        </mxCell>
        <mxCell id="LL-gX-i_un-LDWt7gdUC-158" value="&lt;div&gt;createOrderCommand.SetServiceTypeFail(serviceType)&lt;br&gt;&lt;/div&gt;" style="rounded=0;whiteSpace=wrap;html=1;" parent="1" vertex="1">
          <mxGeometry x="-176.49" y="4500" width="405" height="30" as="geometry" />
        </mxCell>
        <mxCell id="WpTLxcSnzzfyFKcX9dQU-28" style="edgeStyle=orthogonalEdgeStyle;rounded=0;orthogonalLoop=1;jettySize=auto;html=1;exitX=0;exitY=0.5;exitDx=0;exitDy=0;" parent="1" source="LL-gX-i_un-LDWt7gdUC-159" edge="1">
          <mxGeometry relative="1" as="geometry">
            <mxPoint x="450" y="4600" as="targetPoint" />
          </mxGeometry>
        </mxCell>
        <mxCell id="LL-gX-i_un-LDWt7gdUC-159" value="&lt;div&gt;createOrderCommand.SetServiceTypeDetail(serviceType)&lt;br&gt;&lt;/div&gt;" style="rounded=0;whiteSpace=wrap;html=1;" parent="1" vertex="1">
          <mxGeometry x="653.51" y="4500" width="405" height="30" as="geometry" />
        </mxCell>
        <mxCell id="LL-gX-i_un-LDWt7gdUC-160" value="T" style="text;html=1;align=center;verticalAlign=middle;resizable=0;points=[];autosize=1;strokeColor=none;fillColor=none;" parent="1" vertex="1">
          <mxGeometry x="703.51" y="4368" width="30" height="30" as="geometry" />
        </mxCell>
        <mxCell id="WpTLxcSnzzfyFKcX9dQU-30" style="edgeStyle=orthogonalEdgeStyle;rounded=0;orthogonalLoop=1;jettySize=auto;html=1;exitX=0.5;exitY=1;exitDx=0;exitDy=0;" parent="1" source="LL-gX-i_un-LDWt7gdUC-161" edge="1">
          <mxGeometry relative="1" as="geometry">
            <mxPoint x="454" y="4340" as="targetPoint" />
          </mxGeometry>
        </mxCell>
        <mxCell id="LL-gX-i_un-LDWt7gdUC-161" value="&lt;div&gt;serviceType =&amp;nbsp;&lt;span style=&quot;background-color: transparent; color: light-dark(rgb(0, 0, 0), rgb(255, 255, 255));&quot;&gt;validateServiceType(serviceTypes, serviceTypeConfigs, tmsOrder)&lt;/span&gt;&lt;br&gt;&lt;/div&gt;" style="rounded=0;whiteSpace=wrap;html=1;" parent="1" vertex="1">
          <mxGeometry x="218.51" y="4270" width="470" height="30" as="geometry" />
        </mxCell>
        <mxCell id="LL-gX-i_un-LDWt7gdUC-162" value="F" style="text;html=1;align=center;verticalAlign=middle;resizable=0;points=[];autosize=1;strokeColor=none;fillColor=none;" parent="1" vertex="1">
          <mxGeometry x="188.51" y="4360" width="30" height="30" as="geometry" />
        </mxCell>
        <mxCell id="WpTLxcSnzzfyFKcX9dQU-25" style="edgeStyle=orthogonalEdgeStyle;rounded=0;orthogonalLoop=1;jettySize=auto;html=1;exitX=0.5;exitY=1;exitDx=0;exitDy=0;entryX=0.5;entryY=0;entryDx=0;entryDy=0;" parent="1" source="WpTLxcSnzzfyFKcX9dQU-2" target="WpTLxcSnzzfyFKcX9dQU-4" edge="1">
          <mxGeometry relative="1" as="geometry" />
        </mxCell>
        <mxCell id="gkNS_IapdHRCTGmgCiwo-89" style="edgeStyle=orthogonalEdgeStyle;rounded=0;orthogonalLoop=1;jettySize=auto;html=1;exitX=1;exitY=0.5;exitDx=0;exitDy=0;entryX=0;entryY=0.5;entryDx=0;entryDy=0;endArrow=none;startFill=0;" parent="1" source="WpTLxcSnzzfyFKcX9dQU-2" target="WpTLxcSnzzfyFKcX9dQU-3" edge="1">
          <mxGeometry relative="1" as="geometry" />
        </mxCell>
        <mxCell id="WpTLxcSnzzfyFKcX9dQU-2" value="order3plFromCustomer = api.Customer.GetOrder3pl(tmsOrder.bu, tmsOrder.ReferenceNo)" style="rounded=0;whiteSpace=wrap;html=1;fillColor=#d80073;fontColor=#ffffff;strokeColor=#A50040;" parent="1" vertex="1">
          <mxGeometry x="259.99999999999994" y="4600" width="380" height="36.5" as="geometry" />
        </mxCell>
        <mxCell id="WpTLxcSnzzfyFKcX9dQU-3" value="endpoint path:&lt;div&gt;/customer/api/orders3PL/getOrder3PL?buCode={bu}&amp;amp;referenceNumber={ref}&lt;/div&gt;" style="text;html=1;align=center;verticalAlign=middle;whiteSpace=wrap;rounded=0;fillColor=#d80073;fontColor=#ffffff;strokeColor=#A50040;" parent="1" vertex="1">
          <mxGeometry x="680.0000000000001" y="4603.25" width="450" height="30" as="geometry" />
        </mxCell>
        <mxCell id="WpTLxcSnzzfyFKcX9dQU-20" style="edgeStyle=orthogonalEdgeStyle;rounded=0;orthogonalLoop=1;jettySize=auto;html=1;exitX=1;exitY=0.5;exitDx=0;exitDy=0;entryX=0.5;entryY=0;entryDx=0;entryDy=0;" parent="1" source="WpTLxcSnzzfyFKcX9dQU-4" target="WpTLxcSnzzfyFKcX9dQU-6" edge="1">
          <mxGeometry relative="1" as="geometry" />
        </mxCell>
        <mxCell id="WpTLxcSnzzfyFKcX9dQU-21" style="edgeStyle=orthogonalEdgeStyle;rounded=0;orthogonalLoop=1;jettySize=auto;html=1;exitX=0;exitY=0.5;exitDx=0;exitDy=0;entryX=0.5;entryY=0;entryDx=0;entryDy=0;" parent="1" source="WpTLxcSnzzfyFKcX9dQU-4" target="WpTLxcSnzzfyFKcX9dQU-8" edge="1">
          <mxGeometry relative="1" as="geometry" />
        </mxCell>
        <mxCell id="WpTLxcSnzzfyFKcX9dQU-4" value="&lt;div&gt;order3plFromCustomer?.order is not null&lt;/div&gt;" style="rhombus;whiteSpace=wrap;html=1;fillColor=none;" parent="1" vertex="1">
          <mxGeometry x="210.65000000000003" y="4720" width="478.71" height="110" as="geometry" />
        </mxCell>
        <mxCell id="gkNS_IapdHRCTGmgCiwo-14" style="edgeStyle=orthogonalEdgeStyle;rounded=0;orthogonalLoop=1;jettySize=auto;html=1;exitX=0;exitY=0.5;exitDx=0;exitDy=0;" parent="1" source="WpTLxcSnzzfyFKcX9dQU-6" edge="1">
          <mxGeometry relative="1" as="geometry">
            <mxPoint x="449.99999999999955" y="5320" as="targetPoint" />
          </mxGeometry>
        </mxCell>
        <mxCell id="WpTLxcSnzzfyFKcX9dQU-6" value="&lt;div&gt;createOrderCommand.OrderNumber = order3plFromCustomer.order.orderNumber&lt;br&gt;&lt;/div&gt;" style="rounded=0;whiteSpace=wrap;html=1;" parent="1" vertex="1">
          <mxGeometry x="707.5" y="5220" width="405" height="30" as="geometry" />
        </mxCell>
        <mxCell id="WpTLxcSnzzfyFKcX9dQU-7" value="T" style="text;html=1;align=center;verticalAlign=middle;resizable=0;points=[];autosize=1;strokeColor=none;fillColor=none;" parent="1" vertex="1">
          <mxGeometry x="677.5" y="4728" width="30" height="30" as="geometry" />
        </mxCell>
        <mxCell id="WpTLxcSnzzfyFKcX9dQU-8" value="&lt;div&gt;createOrderCommand.SetServiceTypeDetail(serviceType)&lt;br&gt;&lt;/div&gt;" style="rounded=0;whiteSpace=wrap;html=1;" parent="1" vertex="1">
          <mxGeometry x="-148.98" y="4860" width="405" height="30" as="geometry" />
        </mxCell>
        <mxCell id="WpTLxcSnzzfyFKcX9dQU-24" style="edgeStyle=orthogonalEdgeStyle;rounded=0;orthogonalLoop=1;jettySize=auto;html=1;exitX=0.5;exitY=1;exitDx=0;exitDy=0;entryX=0.5;entryY=0;entryDx=0;entryDy=0;" parent="1" source="WpTLxcSnzzfyFKcX9dQU-9" target="WpTLxcSnzzfyFKcX9dQU-14" edge="1">
          <mxGeometry relative="1" as="geometry" />
        </mxCell>
        <mxCell id="gkNS_IapdHRCTGmgCiwo-90" style="edgeStyle=orthogonalEdgeStyle;rounded=0;orthogonalLoop=1;jettySize=auto;html=1;exitX=0;exitY=0.5;exitDx=0;exitDy=0;endArrow=none;startFill=0;" parent="1" source="WpTLxcSnzzfyFKcX9dQU-9" edge="1">
          <mxGeometry relative="1" as="geometry">
            <mxPoint x="-180" y="4964.652173913044" as="targetPoint" />
          </mxGeometry>
        </mxCell>
        <mxCell id="WpTLxcSnzzfyFKcX9dQU-9" value="genOrderNumber = api.Master.GetAutoNumber(&lt;div&gt;buCode:&amp;nbsp;&lt;span style=&quot;background-color: transparent; color: light-dark(rgb(0, 0, 0), rgb(255, 255, 255));&quot;&gt;tmsOrder.bu&lt;/span&gt;&lt;span style=&quot;background-color: transparent; color: light-dark(rgb(0, 0, 0), rgb(255, 255, 255));&quot;&gt;,&lt;/span&gt;&lt;/div&gt;&lt;div&gt;sequenceCode: &quot;ORDER_NUMBER&quot;,&lt;/div&gt;&lt;div&gt;placeCode: createOrderCommand.place.placeCode)&lt;/div&gt;" style="rounded=0;whiteSpace=wrap;html=1;fillColor=#d80073;fontColor=#ffffff;strokeColor=#A50040;" parent="1" vertex="1">
          <mxGeometry x="-133.46" y="4930" width="361.97" height="70" as="geometry" />
        </mxCell>
        <mxCell id="WpTLxcSnzzfyFKcX9dQU-10" value="&lt;div&gt;endpont path:&lt;/div&gt;/master/api/sequences/genNumber?buCode={buCode}&amp;amp;sequenceCode={sequenceCode}&amp;amp;placeCode={placeCode}" style="text;html=1;align=center;verticalAlign=middle;resizable=0;points=[];autosize=1;strokeColor=#A50040;fillColor=#d80073;fontColor=#ffffff;" parent="1" vertex="1">
          <mxGeometry x="-820.38" y="4945" width="640" height="40" as="geometry" />
        </mxCell>
        <mxCell id="WpTLxcSnzzfyFKcX9dQU-11" value="next setMessageValidateToView()" style="rounded=0;whiteSpace=wrap;html=1;fillColor=#0050ef;fontColor=#ffffff;strokeColor=#001DBC;" parent="1" vertex="1">
          <mxGeometry x="-490" y="5086.75" width="226.11" height="36.5" as="geometry" />
        </mxCell>
        <mxCell id="WpTLxcSnzzfyFKcX9dQU-15" style="edgeStyle=orthogonalEdgeStyle;rounded=0;orthogonalLoop=1;jettySize=auto;html=1;" parent="1" source="WpTLxcSnzzfyFKcX9dQU-14" edge="1">
          <mxGeometry relative="1" as="geometry">
            <mxPoint x="-250" y="5105" as="targetPoint" />
          </mxGeometry>
        </mxCell>
        <mxCell id="WpTLxcSnzzfyFKcX9dQU-19" style="edgeStyle=orthogonalEdgeStyle;rounded=0;orthogonalLoop=1;jettySize=auto;html=1;exitX=0.5;exitY=1;exitDx=0;exitDy=0;" parent="1" source="WpTLxcSnzzfyFKcX9dQU-14" edge="1">
          <mxGeometry relative="1" as="geometry">
            <mxPoint x="47.33333333333326" y="5210" as="targetPoint" />
          </mxGeometry>
        </mxCell>
        <mxCell id="WpTLxcSnzzfyFKcX9dQU-14" value="&lt;div&gt;genOrderNumber.status &amp;gt; 0&lt;/div&gt;" style="rhombus;whiteSpace=wrap;html=1;fillColor=none;" parent="1" vertex="1">
          <mxGeometry x="-191.82999999999998" y="5050" width="478.71" height="110" as="geometry" />
        </mxCell>
        <mxCell id="WpTLxcSnzzfyFKcX9dQU-16" value="T" style="text;html=1;align=center;verticalAlign=middle;resizable=0;points=[];autosize=1;strokeColor=none;fillColor=none;" parent="1" vertex="1">
          <mxGeometry x="-206.49" y="5070" width="30" height="30" as="geometry" />
        </mxCell>
        <mxCell id="gkNS_IapdHRCTGmgCiwo-13" style="edgeStyle=orthogonalEdgeStyle;rounded=0;orthogonalLoop=1;jettySize=auto;html=1;exitX=1;exitY=0.5;exitDx=0;exitDy=0;entryX=0.5;entryY=0;entryDx=0;entryDy=0;" parent="1" source="WpTLxcSnzzfyFKcX9dQU-17" target="WpTLxcSnzzfyFKcX9dQU-42" edge="1">
          <mxGeometry relative="1" as="geometry" />
        </mxCell>
        <mxCell id="WpTLxcSnzzfyFKcX9dQU-17" value="&lt;div&gt;createOrderCommand.OrderNumber = genOrderNumber.sequenceNumber&lt;br&gt;&lt;/div&gt;" style="rounded=0;whiteSpace=wrap;html=1;" parent="1" vertex="1">
          <mxGeometry x="-155" y="5220" width="405" height="30" as="geometry" />
        </mxCell>
        <mxCell id="WpTLxcSnzzfyFKcX9dQU-18" value="F" style="text;html=1;align=center;verticalAlign=middle;resizable=0;points=[];autosize=1;strokeColor=none;fillColor=none;" parent="1" vertex="1">
          <mxGeometry y="5160" width="30" height="30" as="geometry" />
        </mxCell>
        <mxCell id="WpTLxcSnzzfyFKcX9dQU-23" style="edgeStyle=orthogonalEdgeStyle;rounded=0;orthogonalLoop=1;jettySize=auto;html=1;exitX=0.5;exitY=1;exitDx=0;exitDy=0;entryX=0.528;entryY=-0.03;entryDx=0;entryDy=0;entryPerimeter=0;" parent="1" source="WpTLxcSnzzfyFKcX9dQU-8" target="WpTLxcSnzzfyFKcX9dQU-9" edge="1">
          <mxGeometry relative="1" as="geometry" />
        </mxCell>
        <mxCell id="WpTLxcSnzzfyFKcX9dQU-34" value="next setDataToView(order3pl)" style="rounded=0;whiteSpace=wrap;html=1;fillColor=#0050ef;fontColor=#ffffff;strokeColor=#001DBC;" parent="1" vertex="1">
          <mxGeometry x="-110.00000000000001" y="1495" width="263.61" height="40" as="geometry" />
        </mxCell>
        <mxCell id="WpTLxcSnzzfyFKcX9dQU-36" value="F" style="text;html=1;align=center;verticalAlign=middle;resizable=0;points=[];autosize=1;strokeColor=none;fillColor=none;" parent="1" vertex="1">
          <mxGeometry x="255" y="1478" width="30" height="30" as="geometry" />
        </mxCell>
        <mxCell id="WpTLxcSnzzfyFKcX9dQU-37" value="T" style="text;html=1;align=center;verticalAlign=middle;resizable=0;points=[];autosize=1;strokeColor=none;fillColor=none;" parent="1" vertex="1">
          <mxGeometry x="385" y="1538" width="30" height="30" as="geometry" />
        </mxCell>
        <mxCell id="gkNS_IapdHRCTGmgCiwo-17" style="edgeStyle=orthogonalEdgeStyle;rounded=0;orthogonalLoop=1;jettySize=auto;html=1;exitX=0;exitY=0.5;exitDx=0;exitDy=0;entryX=0.5;entryY=0;entryDx=0;entryDy=0;" parent="1" source="WpTLxcSnzzfyFKcX9dQU-40" target="WpTLxcSnzzfyFKcX9dQU-46" edge="1">
          <mxGeometry relative="1" as="geometry" />
        </mxCell>
        <mxCell id="WpTLxcSnzzfyFKcX9dQU-40" value="&lt;div&gt;shipmentFrom3pl is not null&lt;/div&gt;" style="rhombus;whiteSpace=wrap;html=1;fillColor=none;" parent="1" vertex="1">
          <mxGeometry x="219.10000000000005" y="5440" width="478.71" height="110" as="geometry" />
        </mxCell>
        <mxCell id="gkNS_IapdHRCTGmgCiwo-15" style="edgeStyle=orthogonalEdgeStyle;rounded=0;orthogonalLoop=1;jettySize=auto;html=1;exitX=0.5;exitY=1;exitDx=0;exitDy=0;" parent="1" source="WpTLxcSnzzfyFKcX9dQU-42" edge="1">
          <mxGeometry relative="1" as="geometry">
            <mxPoint x="453.76470588235316" y="5430" as="targetPoint" />
          </mxGeometry>
        </mxCell>
        <mxCell id="WpTLxcSnzzfyFKcX9dQU-42" value="shipmentFrom3pl = api.3pl.getShipment(tmsOrder.bu, tmsOrder.ReferenceNo)" style="rounded=0;whiteSpace=wrap;html=1;fillColor=#d80073;fontColor=#ffffff;strokeColor=#A50040;" parent="1" vertex="1">
          <mxGeometry x="272.53" y="5320" width="361.97" height="70" as="geometry" />
        </mxCell>
        <mxCell id="WpTLxcSnzzfyFKcX9dQU-43" value="endpoint path:&lt;div&gt;/3pl/api/TMS3plShipment/searchShipments&lt;/div&gt;" style="text;html=1;align=center;verticalAlign=middle;resizable=0;points=[];autosize=1;strokeColor=#A50040;fillColor=#d80073;fontColor=#ffffff;" parent="1" vertex="1">
          <mxGeometry x="670" y="5335" width="250" height="40" as="geometry" />
        </mxCell>
        <mxCell id="WpTLxcSnzzfyFKcX9dQU-44" value="T" style="text;html=1;align=center;verticalAlign=middle;resizable=0;points=[];autosize=1;strokeColor=none;fillColor=none;" parent="1" vertex="1">
          <mxGeometry x="685" y="5438" width="30" height="30" as="geometry" />
        </mxCell>
        <mxCell id="gkNS_IapdHRCTGmgCiwo-18" style="edgeStyle=orthogonalEdgeStyle;rounded=0;orthogonalLoop=1;jettySize=auto;html=1;exitX=1;exitY=0.5;exitDx=0;exitDy=0;entryX=0.5;entryY=0;entryDx=0;entryDy=0;" parent="1" source="WpTLxcSnzzfyFKcX9dQU-45" target="WpTLxcSnzzfyFKcX9dQU-73" edge="1">
          <mxGeometry relative="1" as="geometry">
            <Array as="points">
              <mxPoint x="1230" y="5555" />
              <mxPoint x="1230" y="6130" />
              <mxPoint x="-7" y="6130" />
            </Array>
          </mxGeometry>
        </mxCell>
        <mxCell id="WpTLxcSnzzfyFKcX9dQU-45" value="&lt;div&gt;createOrderCommand.TrackingNo = shipmentFrom3pl.TrackingNo&lt;br&gt;&lt;/div&gt;&lt;div&gt;createOrderCommand.AWBUrl = shipment.TrackingUrl&lt;/div&gt;" style="rounded=0;whiteSpace=wrap;html=1;" parent="1" vertex="1">
          <mxGeometry x="715" y="5540" width="405" height="30" as="geometry" />
        </mxCell>
        <mxCell id="WpTLxcSnzzfyFKcX9dQU-55" style="edgeStyle=orthogonalEdgeStyle;rounded=0;orthogonalLoop=1;jettySize=auto;html=1;exitX=0;exitY=0.5;exitDx=0;exitDy=0;entryX=0.5;entryY=0;entryDx=0;entryDy=0;" parent="1" source="WpTLxcSnzzfyFKcX9dQU-46" target="WpTLxcSnzzfyFKcX9dQU-48" edge="1">
          <mxGeometry relative="1" as="geometry" />
        </mxCell>
        <mxCell id="WpTLxcSnzzfyFKcX9dQU-71" style="edgeStyle=orthogonalEdgeStyle;rounded=0;orthogonalLoop=1;jettySize=auto;html=1;exitX=1;exitY=0.5;exitDx=0;exitDy=0;entryX=0.5;entryY=0;entryDx=0;entryDy=0;" parent="1" source="WpTLxcSnzzfyFKcX9dQU-46" target="WpTLxcSnzzfyFKcX9dQU-58" edge="1">
          <mxGeometry relative="1" as="geometry" />
        </mxCell>
        <mxCell id="WpTLxcSnzzfyFKcX9dQU-46" value="&lt;div&gt;tmsOrder.trackingNo is not null&lt;/div&gt;" style="rhombus;whiteSpace=wrap;html=1;fillColor=none;" parent="1" vertex="1">
          <mxGeometry x="-234.99999999999997" y="5630" width="478.71" height="110" as="geometry" />
        </mxCell>
        <mxCell id="WpTLxcSnzzfyFKcX9dQU-47" value="F" style="text;html=1;align=center;verticalAlign=middle;resizable=0;points=[];autosize=1;strokeColor=none;fillColor=none;" parent="1" vertex="1">
          <mxGeometry x="225" y="5438" width="30" height="30" as="geometry" />
        </mxCell>
        <mxCell id="WpTLxcSnzzfyFKcX9dQU-66" style="edgeStyle=orthogonalEdgeStyle;rounded=0;orthogonalLoop=1;jettySize=auto;html=1;exitX=0.5;exitY=1;exitDx=0;exitDy=0;" parent="1" source="WpTLxcSnzzfyFKcX9dQU-48" edge="1">
          <mxGeometry relative="1" as="geometry">
            <mxPoint x="-599.1764705882351" y="5900" as="targetPoint" />
          </mxGeometry>
        </mxCell>
        <mxCell id="gkNS_IapdHRCTGmgCiwo-93" style="edgeStyle=orthogonalEdgeStyle;rounded=0;orthogonalLoop=1;jettySize=auto;html=1;exitX=0;exitY=0.5;exitDx=0;exitDy=0;endArrow=none;startFill=0;" parent="1" source="WpTLxcSnzzfyFKcX9dQU-48" edge="1">
          <mxGeometry relative="1" as="geometry">
            <mxPoint x="-820" y="5815" as="targetPoint" />
          </mxGeometry>
        </mxCell>
        <mxCell id="WpTLxcSnzzfyFKcX9dQU-48" value="checkTrackingNo = api.3pl.checkTrackingNo(tmsOrder, createOrderCommand)" style="rounded=0;whiteSpace=wrap;html=1;fillColor=#d80073;fontColor=#ffffff;strokeColor=#A50040;" parent="1" vertex="1">
          <mxGeometry x="-779.86" y="5780" width="361.97" height="70" as="geometry" />
        </mxCell>
        <mxCell id="WpTLxcSnzzfyFKcX9dQU-49" value="T" style="text;html=1;align=center;verticalAlign=middle;resizable=0;points=[];autosize=1;strokeColor=none;fillColor=none;" parent="1" vertex="1">
          <mxGeometry x="-255" y="5640" width="30" height="30" as="geometry" />
        </mxCell>
        <mxCell id="WpTLxcSnzzfyFKcX9dQU-50" value="endpoint path:&lt;div&gt;/3pl/api/TMS3PLCheckTrackingNo/checkTrackingNoByAlias&lt;/div&gt;" style="text;html=1;align=center;verticalAlign=middle;resizable=0;points=[];autosize=1;strokeColor=#A50040;fillColor=#d80073;fontColor=#ffffff;" parent="1" vertex="1">
          <mxGeometry x="-1164" y="5795" width="340" height="40" as="geometry" />
        </mxCell>
        <mxCell id="WpTLxcSnzzfyFKcX9dQU-51" value="&lt;div&gt;checkTrackingNo.status &amp;gt; 0&lt;/div&gt;" style="rhombus;whiteSpace=wrap;html=1;fillColor=none;" parent="1" vertex="1">
          <mxGeometry x="-838.23" y="5910" width="478.71" height="110" as="geometry" />
        </mxCell>
        <mxCell id="WpTLxcSnzzfyFKcX9dQU-52" value="T" style="text;html=1;align=center;verticalAlign=middle;resizable=0;points=[];autosize=1;strokeColor=none;fillColor=none;" parent="1" vertex="1">
          <mxGeometry x="-889" y="5928" width="30" height="30" as="geometry" />
        </mxCell>
        <mxCell id="WpTLxcSnzzfyFKcX9dQU-77" style="edgeStyle=orthogonalEdgeStyle;rounded=0;orthogonalLoop=1;jettySize=auto;html=1;exitX=0.5;exitY=1;exitDx=0;exitDy=0;entryX=0.5;entryY=0;entryDx=0;entryDy=0;" parent="1" source="WpTLxcSnzzfyFKcX9dQU-53" target="WpTLxcSnzzfyFKcX9dQU-73" edge="1">
          <mxGeometry relative="1" as="geometry" />
        </mxCell>
        <mxCell id="WpTLxcSnzzfyFKcX9dQU-53" value="&lt;div&gt;createOrderCommand.SetCheckTrackingFail(checkTrackingNo)&lt;br&gt;&lt;/div&gt;" style="rounded=0;whiteSpace=wrap;html=1;" parent="1" vertex="1">
          <mxGeometry x="-1214" y="6030" width="405" height="30" as="geometry" />
        </mxCell>
        <mxCell id="WpTLxcSnzzfyFKcX9dQU-78" style="edgeStyle=orthogonalEdgeStyle;rounded=0;orthogonalLoop=1;jettySize=auto;html=1;exitX=0.5;exitY=1;exitDx=0;exitDy=0;entryX=0.5;entryY=0;entryDx=0;entryDy=0;" parent="1" source="WpTLxcSnzzfyFKcX9dQU-54" target="WpTLxcSnzzfyFKcX9dQU-73" edge="1">
          <mxGeometry relative="1" as="geometry" />
        </mxCell>
        <mxCell id="WpTLxcSnzzfyFKcX9dQU-54" value="&lt;div&gt;createOrderCommand.SetCheckTrackingDetail(checkTrackingNo)&lt;br&gt;&lt;/div&gt;" style="rounded=0;whiteSpace=wrap;html=1;" parent="1" vertex="1">
          <mxGeometry x="-405.39" y="6030" width="405" height="30" as="geometry" />
        </mxCell>
        <mxCell id="WpTLxcSnzzfyFKcX9dQU-56" value="F" style="text;html=1;align=center;verticalAlign=middle;resizable=0;points=[];autosize=1;strokeColor=none;fillColor=none;" parent="1" vertex="1">
          <mxGeometry x="225" y="5638" width="30" height="30" as="geometry" />
        </mxCell>
        <mxCell id="WpTLxcSnzzfyFKcX9dQU-72" style="edgeStyle=orthogonalEdgeStyle;rounded=0;orthogonalLoop=1;jettySize=auto;html=1;exitX=0.5;exitY=1;exitDx=0;exitDy=0;" parent="1" source="WpTLxcSnzzfyFKcX9dQU-58" edge="1">
          <mxGeometry relative="1" as="geometry">
            <mxPoint x="585.2857142857147" y="5890" as="targetPoint" />
          </mxGeometry>
        </mxCell>
        <mxCell id="gkNS_IapdHRCTGmgCiwo-92" style="edgeStyle=orthogonalEdgeStyle;rounded=0;orthogonalLoop=1;jettySize=auto;html=1;exitX=1;exitY=0.5;exitDx=0;exitDy=0;endArrow=none;startFill=0;" parent="1" source="WpTLxcSnzzfyFKcX9dQU-58" edge="1">
          <mxGeometry relative="1" as="geometry">
            <mxPoint x="800" y="5815" as="targetPoint" />
          </mxGeometry>
        </mxCell>
        <mxCell id="WpTLxcSnzzfyFKcX9dQU-58" value="genTrackingNo = api.3pl.checkTrackingNo(tmsOrder, createOrderCommand)" style="rounded=0;whiteSpace=wrap;html=1;fillColor=#d80073;fontColor=#ffffff;strokeColor=#A50040;" parent="1" vertex="1">
          <mxGeometry x="404.02000000000004" y="5780" width="361.97" height="70" as="geometry" />
        </mxCell>
        <mxCell id="WpTLxcSnzzfyFKcX9dQU-59" value="endpoint path:&lt;div&gt;/3pl/api/TMS3PLSequence/genNumberMultiBuByAlias&lt;/div&gt;" style="text;html=1;align=center;verticalAlign=middle;resizable=0;points=[];autosize=1;strokeColor=#A50040;fillColor=#d80073;fontColor=#ffffff;" parent="1" vertex="1">
          <mxGeometry x="802.5" y="5795" width="310" height="40" as="geometry" />
        </mxCell>
        <mxCell id="WpTLxcSnzzfyFKcX9dQU-69" style="edgeStyle=orthogonalEdgeStyle;rounded=0;orthogonalLoop=1;jettySize=auto;html=1;exitX=0;exitY=0.5;exitDx=0;exitDy=0;entryX=0.5;entryY=0;entryDx=0;entryDy=0;" parent="1" source="WpTLxcSnzzfyFKcX9dQU-60" target="WpTLxcSnzzfyFKcX9dQU-62" edge="1">
          <mxGeometry relative="1" as="geometry" />
        </mxCell>
        <mxCell id="WpTLxcSnzzfyFKcX9dQU-60" value="&lt;div&gt;genTrackingNo.status &amp;gt; 0&lt;/div&gt;" style="rhombus;whiteSpace=wrap;html=1;fillColor=none;" parent="1" vertex="1">
          <mxGeometry x="345.65" y="5910" width="478.71" height="110" as="geometry" />
        </mxCell>
        <mxCell id="WpTLxcSnzzfyFKcX9dQU-79" style="edgeStyle=orthogonalEdgeStyle;rounded=0;orthogonalLoop=1;jettySize=auto;html=1;exitX=0.5;exitY=1;exitDx=0;exitDy=0;" parent="1" source="WpTLxcSnzzfyFKcX9dQU-61" target="WpTLxcSnzzfyFKcX9dQU-73" edge="1">
          <mxGeometry relative="1" as="geometry" />
        </mxCell>
        <mxCell id="WpTLxcSnzzfyFKcX9dQU-61" value="&lt;div&gt;createOrderCommand.SetGenTrackingNoDetail(genTrackingNo)&lt;br&gt;&lt;/div&gt;" style="rounded=0;whiteSpace=wrap;html=1;" parent="1" vertex="1">
          <mxGeometry x="745" y="6030" width="405" height="30" as="geometry" />
        </mxCell>
        <mxCell id="WpTLxcSnzzfyFKcX9dQU-80" style="edgeStyle=orthogonalEdgeStyle;rounded=0;orthogonalLoop=1;jettySize=auto;html=1;exitX=0.5;exitY=1;exitDx=0;exitDy=0;" parent="1" source="WpTLxcSnzzfyFKcX9dQU-62" edge="1">
          <mxGeometry relative="1" as="geometry">
            <mxPoint x="-10" y="6190" as="targetPoint" />
          </mxGeometry>
        </mxCell>
        <mxCell id="WpTLxcSnzzfyFKcX9dQU-62" value="&lt;div&gt;createOrderCommand.SetGenTrackingNoFail(genTrackingNo)&lt;br&gt;&lt;/div&gt;" style="rounded=0;whiteSpace=wrap;html=1;" parent="1" vertex="1">
          <mxGeometry x="32.5" y="6030" width="405" height="30" as="geometry" />
        </mxCell>
        <mxCell id="WpTLxcSnzzfyFKcX9dQU-63" value="F" style="text;html=1;align=center;verticalAlign=middle;resizable=0;points=[];autosize=1;strokeColor=none;fillColor=none;" parent="1" vertex="1">
          <mxGeometry x="300.01" y="5928" width="30" height="30" as="geometry" />
        </mxCell>
        <mxCell id="WpTLxcSnzzfyFKcX9dQU-64" value="T" style="text;html=1;align=center;verticalAlign=middle;resizable=0;points=[];autosize=1;strokeColor=none;fillColor=none;" parent="1" vertex="1">
          <mxGeometry x="830" y="5928" width="30" height="30" as="geometry" />
        </mxCell>
        <mxCell id="WpTLxcSnzzfyFKcX9dQU-65" value="F" style="text;html=1;align=center;verticalAlign=middle;resizable=0;points=[];autosize=1;strokeColor=none;fillColor=none;" parent="1" vertex="1">
          <mxGeometry x="-380" y="5920" width="30" height="30" as="geometry" />
        </mxCell>
        <mxCell id="WpTLxcSnzzfyFKcX9dQU-67" style="edgeStyle=orthogonalEdgeStyle;rounded=0;orthogonalLoop=1;jettySize=auto;html=1;exitX=0;exitY=0.5;exitDx=0;exitDy=0;entryX=0.48;entryY=0.069;entryDx=0;entryDy=0;entryPerimeter=0;" parent="1" source="WpTLxcSnzzfyFKcX9dQU-51" target="WpTLxcSnzzfyFKcX9dQU-53" edge="1">
          <mxGeometry relative="1" as="geometry" />
        </mxCell>
        <mxCell id="WpTLxcSnzzfyFKcX9dQU-68" style="edgeStyle=orthogonalEdgeStyle;rounded=0;orthogonalLoop=1;jettySize=auto;html=1;exitX=1;exitY=0.5;exitDx=0;exitDy=0;entryX=0.598;entryY=0.095;entryDx=0;entryDy=0;entryPerimeter=0;" parent="1" source="WpTLxcSnzzfyFKcX9dQU-51" target="WpTLxcSnzzfyFKcX9dQU-54" edge="1">
          <mxGeometry relative="1" as="geometry" />
        </mxCell>
        <mxCell id="WpTLxcSnzzfyFKcX9dQU-70" style="edgeStyle=orthogonalEdgeStyle;rounded=0;orthogonalLoop=1;jettySize=auto;html=1;exitX=1;exitY=0.5;exitDx=0;exitDy=0;entryX=0.556;entryY=0.017;entryDx=0;entryDy=0;entryPerimeter=0;" parent="1" source="WpTLxcSnzzfyFKcX9dQU-60" target="WpTLxcSnzzfyFKcX9dQU-61" edge="1">
          <mxGeometry relative="1" as="geometry" />
        </mxCell>
        <mxCell id="WpTLxcSnzzfyFKcX9dQU-82" style="edgeStyle=orthogonalEdgeStyle;rounded=0;orthogonalLoop=1;jettySize=auto;html=1;exitX=0.5;exitY=1;exitDx=0;exitDy=0;entryX=0.5;entryY=0;entryDx=0;entryDy=0;" parent="1" source="WpTLxcSnzzfyFKcX9dQU-73" target="WpTLxcSnzzfyFKcX9dQU-74" edge="1">
          <mxGeometry relative="1" as="geometry" />
        </mxCell>
        <mxCell id="WpTLxcSnzzfyFKcX9dQU-73" value="&lt;div&gt;createOrderCommand.AWBNameGuid = generateGuId()&lt;br&gt;&lt;/div&gt;" style="rounded=0;whiteSpace=wrap;html=1;" parent="1" vertex="1">
          <mxGeometry x="-210" y="6190" width="405" height="30" as="geometry" />
        </mxCell>
        <mxCell id="gkNS_IapdHRCTGmgCiwo-19" style="edgeStyle=orthogonalEdgeStyle;rounded=0;orthogonalLoop=1;jettySize=auto;html=1;exitX=0.5;exitY=1;exitDx=0;exitDy=0;entryX=0.5;entryY=0;entryDx=0;entryDy=0;" parent="1" source="WpTLxcSnzzfyFKcX9dQU-74" target="WpTLxcSnzzfyFKcX9dQU-84" edge="1">
          <mxGeometry relative="1" as="geometry" />
        </mxCell>
        <mxCell id="WpTLxcSnzzfyFKcX9dQU-74" value="&lt;div&gt;createOrderCommand.SetAwbUrl()&lt;br&gt;&lt;/div&gt;" style="rounded=0;whiteSpace=wrap;html=1;" parent="1" vertex="1">
          <mxGeometry x="-210" y="6270" width="405" height="30" as="geometry" />
        </mxCell>
        <mxCell id="gkNS_IapdHRCTGmgCiwo-21" style="edgeStyle=orthogonalEdgeStyle;rounded=0;orthogonalLoop=1;jettySize=auto;html=1;exitX=0.5;exitY=1;exitDx=0;exitDy=0;" parent="1" source="WpTLxcSnzzfyFKcX9dQU-84" edge="1">
          <mxGeometry relative="1" as="geometry">
            <mxPoint x="-8" y="6430" as="targetPoint" />
          </mxGeometry>
        </mxCell>
        <mxCell id="gkNS_IapdHRCTGmgCiwo-94" style="edgeStyle=orthogonalEdgeStyle;rounded=0;orthogonalLoop=1;jettySize=auto;html=1;exitX=1;exitY=0.5;exitDx=0;exitDy=0;endArrow=none;startFill=0;" parent="1" source="WpTLxcSnzzfyFKcX9dQU-84" edge="1">
          <mxGeometry relative="1" as="geometry">
            <mxPoint x="220" y="6375.2" as="targetPoint" />
          </mxGeometry>
        </mxCell>
        <mxCell id="WpTLxcSnzzfyFKcX9dQU-84" value="&lt;div&gt;product = api.Product.GetProduct(&lt;span style=&quot;background-color: transparent; color: light-dark(rgb(0, 0, 0), rgb(255, 255, 255));&quot;&gt;tmsOrder.bu, code: &quot;&lt;/span&gt;&lt;span style=&quot;background-color: transparent;&quot;&gt;P0000000&lt;/span&gt;&lt;span style=&quot;background-color: transparent; color: light-dark(rgb(0, 0, 0), rgb(255, 255, 255));&quot;&gt;&quot;&lt;/span&gt;&lt;span style=&quot;background-color: transparent; color: light-dark(rgb(0, 0, 0), rgb(255, 255, 255));&quot;&gt;)&lt;/span&gt;&lt;/div&gt;" style="rounded=0;whiteSpace=wrap;html=1;fillColor=#d80073;fontColor=#ffffff;strokeColor=#A50040;" parent="1" vertex="1">
          <mxGeometry x="-210" y="6360" width="405" height="30" as="geometry" />
        </mxCell>
        <mxCell id="gkNS_IapdHRCTGmgCiwo-6" style="edgeStyle=orthogonalEdgeStyle;rounded=0;orthogonalLoop=1;jettySize=auto;html=1;exitX=0;exitY=0.5;exitDx=0;exitDy=0;entryX=0.5;entryY=0;entryDx=0;entryDy=0;" parent="1" source="WpTLxcSnzzfyFKcX9dQU-86" target="gkNS_IapdHRCTGmgCiwo-3" edge="1">
          <mxGeometry relative="1" as="geometry" />
        </mxCell>
        <mxCell id="WpTLxcSnzzfyFKcX9dQU-86" value="&lt;div&gt;product.status &amp;gt; 0&lt;/div&gt;" style="rhombus;whiteSpace=wrap;html=1;fillColor=none;" parent="1" vertex="1">
          <mxGeometry x="-148.98" y="6440" width="276.85" height="80" as="geometry" />
        </mxCell>
        <mxCell id="WpTLxcSnzzfyFKcX9dQU-87" value="endpoint path:&lt;div&gt;/product/productsproduct?buCode={buCode}&amp;amp;code={code}&lt;/div&gt;" style="text;html=1;align=center;verticalAlign=middle;resizable=0;points=[];autosize=1;strokeColor=#A50040;fillColor=#d80073;fontColor=#ffffff;" parent="1" vertex="1">
          <mxGeometry x="224" y="6355" width="340" height="40" as="geometry" />
        </mxCell>
        <mxCell id="gkNS_IapdHRCTGmgCiwo-1" value="T" style="text;html=1;align=center;verticalAlign=middle;resizable=0;points=[];autosize=1;strokeColor=none;fillColor=none;" parent="1" vertex="1">
          <mxGeometry x="125" y="6440" width="30" height="30" as="geometry" />
        </mxCell>
        <mxCell id="gkNS_IapdHRCTGmgCiwo-9" style="edgeStyle=orthogonalEdgeStyle;rounded=0;orthogonalLoop=1;jettySize=auto;html=1;exitX=0.5;exitY=1;exitDx=0;exitDy=0;entryX=1;entryY=0.5;entryDx=0;entryDy=0;" parent="1" source="gkNS_IapdHRCTGmgCiwo-2" target="gkNS_IapdHRCTGmgCiwo-7" edge="1">
          <mxGeometry relative="1" as="geometry" />
        </mxCell>
        <mxCell id="gkNS_IapdHRCTGmgCiwo-2" value="&lt;div&gt;createOrderCommand.SetProductFail(product)&lt;br&gt;&lt;/div&gt;" style="rounded=0;whiteSpace=wrap;html=1;" parent="1" vertex="1">
          <mxGeometry x="170.21" y="6550" width="299.79" height="30" as="geometry" />
        </mxCell>
        <mxCell id="gkNS_IapdHRCTGmgCiwo-8" style="edgeStyle=orthogonalEdgeStyle;rounded=0;orthogonalLoop=1;jettySize=auto;html=1;exitX=0.5;exitY=1;exitDx=0;exitDy=0;entryX=0;entryY=0.5;entryDx=0;entryDy=0;" parent="1" source="gkNS_IapdHRCTGmgCiwo-3" target="gkNS_IapdHRCTGmgCiwo-7" edge="1">
          <mxGeometry relative="1" as="geometry" />
        </mxCell>
        <mxCell id="gkNS_IapdHRCTGmgCiwo-3" value="&lt;div&gt;createOrderCommand.SetProductDetail(product)&lt;br&gt;&lt;/div&gt;" style="rounded=0;whiteSpace=wrap;html=1;" parent="1" vertex="1">
          <mxGeometry x="-454.78999999999996" y="6550" width="299.79" height="30" as="geometry" />
        </mxCell>
        <mxCell id="gkNS_IapdHRCTGmgCiwo-4" value="F" style="text;html=1;align=center;verticalAlign=middle;resizable=0;points=[];autosize=1;strokeColor=none;fillColor=none;" parent="1" vertex="1">
          <mxGeometry x="-176.49" y="6440" width="30" height="30" as="geometry" />
        </mxCell>
        <mxCell id="gkNS_IapdHRCTGmgCiwo-5" style="edgeStyle=orthogonalEdgeStyle;rounded=0;orthogonalLoop=1;jettySize=auto;html=1;exitX=1;exitY=0.5;exitDx=0;exitDy=0;entryX=0.586;entryY=0.043;entryDx=0;entryDy=0;entryPerimeter=0;" parent="1" source="WpTLxcSnzzfyFKcX9dQU-86" target="gkNS_IapdHRCTGmgCiwo-2" edge="1">
          <mxGeometry relative="1" as="geometry" />
        </mxCell>
        <mxCell id="gkNS_IapdHRCTGmgCiwo-23" style="edgeStyle=orthogonalEdgeStyle;rounded=0;orthogonalLoop=1;jettySize=auto;html=1;exitX=0.5;exitY=1;exitDx=0;exitDy=0;" parent="1" source="gkNS_IapdHRCTGmgCiwo-7" edge="1">
          <mxGeometry relative="1" as="geometry">
            <mxPoint x="-10.941176470588289" y="6720" as="targetPoint" />
          </mxGeometry>
        </mxCell>
        <mxCell id="gkNS_IapdHRCTGmgCiwo-7" value="&lt;div&gt;stuctCheckerResult = checkStuctCheckerFrom(tmsOrder)&lt;br&gt;&lt;/div&gt;" style="rounded=0;whiteSpace=wrap;html=1;fillColor=#fa6800;fontColor=#000000;strokeColor=#C73500;" parent="1" vertex="1">
          <mxGeometry x="-160.45000000000002" y="6650" width="299.79" height="30" as="geometry" />
        </mxCell>
        <mxCell id="Vpgx6mXPmqAcxmZILDP9-3" style="edgeStyle=orthogonalEdgeStyle;rounded=0;orthogonalLoop=1;jettySize=auto;html=1;exitX=0.5;exitY=1;exitDx=0;exitDy=0;entryX=0.5;entryY=0;entryDx=0;entryDy=0;" edge="1" parent="1" source="gkNS_IapdHRCTGmgCiwo-10" target="LL-gX-i_un-LDWt7gdUC-14">
          <mxGeometry relative="1" as="geometry" />
        </mxCell>
        <mxCell id="gkNS_IapdHRCTGmgCiwo-10" value="Loggic specific to OrderType" style="rounded=0;whiteSpace=wrap;html=1;fillColor=#008a00;fontColor=#ffffff;strokeColor=#005700;" parent="1" vertex="1">
          <mxGeometry x="-155" y="220" width="157.61" height="30" as="geometry" />
        </mxCell>
        <mxCell id="gkNS_IapdHRCTGmgCiwo-16" style="edgeStyle=orthogonalEdgeStyle;rounded=0;orthogonalLoop=1;jettySize=auto;html=1;exitX=1;exitY=0.5;exitDx=0;exitDy=0;entryX=0.415;entryY=0.01;entryDx=0;entryDy=0;entryPerimeter=0;" parent="1" source="WpTLxcSnzzfyFKcX9dQU-40" target="WpTLxcSnzzfyFKcX9dQU-45" edge="1">
          <mxGeometry relative="1" as="geometry" />
        </mxCell>
        <mxCell id="gkNS_IapdHRCTGmgCiwo-28" style="edgeStyle=orthogonalEdgeStyle;rounded=0;orthogonalLoop=1;jettySize=auto;html=1;exitX=1;exitY=0.5;exitDx=0;exitDy=0;entryX=0.5;entryY=0;entryDx=0;entryDy=0;" parent="1" source="gkNS_IapdHRCTGmgCiwo-22" target="gkNS_IapdHRCTGmgCiwo-25" edge="1">
          <mxGeometry relative="1" as="geometry" />
        </mxCell>
        <mxCell id="gkNS_IapdHRCTGmgCiwo-48" style="edgeStyle=orthogonalEdgeStyle;rounded=0;orthogonalLoop=1;jettySize=auto;html=1;exitX=0.5;exitY=1;exitDx=0;exitDy=0;" parent="1" source="gkNS_IapdHRCTGmgCiwo-22" edge="1">
          <mxGeometry relative="1" as="geometry">
            <mxPoint x="-6.857142857142662" y="6869.999999999999" as="targetPoint" />
          </mxGeometry>
        </mxCell>
        <mxCell id="gkNS_IapdHRCTGmgCiwo-22" value="&lt;div&gt;stuctCheckerResult.isInvalid is true&lt;/div&gt;" style="rhombus;whiteSpace=wrap;html=1;fillColor=none;" parent="1" vertex="1">
          <mxGeometry x="-145.92999999999998" y="6730" width="276.85" height="80" as="geometry" />
        </mxCell>
        <mxCell id="gkNS_IapdHRCTGmgCiwo-47" style="edgeStyle=orthogonalEdgeStyle;rounded=0;orthogonalLoop=1;jettySize=auto;html=1;exitX=0.5;exitY=1;exitDx=0;exitDy=0;entryX=1;entryY=0.5;entryDx=0;entryDy=0;" parent="1" source="gkNS_IapdHRCTGmgCiwo-25" target="gkNS_IapdHRCTGmgCiwo-32" edge="1">
          <mxGeometry relative="1" as="geometry" />
        </mxCell>
        <mxCell id="gkNS_IapdHRCTGmgCiwo-25" value="&lt;div&gt;createOrderCommand.SetStuckCheckerInvalid(stuctCheckResult)&lt;br&gt;&lt;/div&gt;" style="rounded=0;whiteSpace=wrap;html=1;" parent="1" vertex="1">
          <mxGeometry x="129.04" y="6810" width="382.13" height="30" as="geometry" />
        </mxCell>
        <mxCell id="gkNS_IapdHRCTGmgCiwo-27" value="T" style="text;html=1;align=center;verticalAlign=middle;resizable=0;points=[];autosize=1;strokeColor=none;fillColor=none;" parent="1" vertex="1">
          <mxGeometry x="95" y="6728" width="30" height="30" as="geometry" />
        </mxCell>
        <mxCell id="gkNS_IapdHRCTGmgCiwo-29" value="&lt;div&gt;customerAddress = db.M3pladdress.query(x=&amp;gt;&amp;nbsp;&lt;/div&gt;&lt;div&gt;x.CustomerId == createOrderCommand.FareyeCustomerId &amp;amp;&amp;amp;&lt;/div&gt;&lt;div&gt;x.buCode == tmsOrder.bu)&lt;br&gt;&lt;/div&gt;" style="rounded=0;whiteSpace=wrap;html=1;" parent="1" vertex="1">
          <mxGeometry x="-194.99999999999997" y="7170" width="390" height="50" as="geometry" />
        </mxCell>
        <mxCell id="gkNS_IapdHRCTGmgCiwo-62" style="edgeStyle=orthogonalEdgeStyle;rounded=0;orthogonalLoop=1;jettySize=auto;html=1;exitX=0.5;exitY=1;exitDx=0;exitDy=0;entryX=0.5;entryY=0;entryDx=0;entryDy=0;" parent="1" source="gkNS_IapdHRCTGmgCiwo-30" target="gkNS_IapdHRCTGmgCiwo-59" edge="1">
          <mxGeometry relative="1" as="geometry" />
        </mxCell>
        <mxCell id="gkNS_IapdHRCTGmgCiwo-30" value="&lt;div&gt;&lt;span style=&quot;background-color: transparent; color: light-dark(rgb(0, 0, 0), rgb(255, 255, 255));&quot;&gt;customerAddressForInsert = MappingToDb(tmsOrder, createOrderCommand)&lt;/span&gt;&lt;br&gt;&lt;/div&gt;&lt;div&gt;db.M3pladdress.insert(customerAddressForInsert)&lt;/div&gt;" style="rounded=0;whiteSpace=wrap;html=1;" parent="1" vertex="1">
          <mxGeometry x="125" y="7370" width="492.32" height="50" as="geometry" />
        </mxCell>
        <mxCell id="gkNS_IapdHRCTGmgCiwo-31" value="F" style="text;html=1;align=center;verticalAlign=middle;resizable=0;points=[];autosize=1;strokeColor=none;fillColor=none;" parent="1" vertex="1">
          <mxGeometry x="-55.9" y="6830" width="30" height="30" as="geometry" />
        </mxCell>
        <mxCell id="gkNS_IapdHRCTGmgCiwo-37" style="edgeStyle=orthogonalEdgeStyle;rounded=0;orthogonalLoop=1;jettySize=auto;html=1;exitX=0.5;exitY=1;exitDx=0;exitDy=0;" parent="1" source="gkNS_IapdHRCTGmgCiwo-32" edge="1">
          <mxGeometry relative="1" as="geometry">
            <mxPoint x="2.658235294117567" y="6960" as="targetPoint" />
          </mxGeometry>
        </mxCell>
        <mxCell id="gkNS_IapdHRCTGmgCiwo-32" value="&lt;div&gt;customer = db.M3plcustomer.query(x=&amp;gt;&amp;nbsp;&lt;/div&gt;&lt;div&gt;x.CustomerId == createOrderCommand.FareyeCustomerId &amp;amp;&amp;amp;&lt;/div&gt;&lt;div&gt;x.buCode == tmsOrder.bu)&lt;br&gt;&lt;/div&gt;" style="rounded=0;whiteSpace=wrap;html=1;" parent="1" vertex="1">
          <mxGeometry x="-191.72" y="6880" width="388.57" height="50" as="geometry" />
        </mxCell>
        <mxCell id="gkNS_IapdHRCTGmgCiwo-33" value="&lt;div&gt;customer is null&lt;/div&gt;" style="rhombus;whiteSpace=wrap;html=1;fillColor=none;" parent="1" vertex="1">
          <mxGeometry x="-136.42" y="6970" width="276.85" height="80" as="geometry" />
        </mxCell>
        <mxCell id="gkNS_IapdHRCTGmgCiwo-50" style="edgeStyle=orthogonalEdgeStyle;rounded=0;orthogonalLoop=1;jettySize=auto;html=1;exitX=0.5;exitY=1;exitDx=0;exitDy=0;entryX=1;entryY=0.5;entryDx=0;entryDy=0;" parent="1" source="gkNS_IapdHRCTGmgCiwo-38" target="gkNS_IapdHRCTGmgCiwo-29" edge="1">
          <mxGeometry relative="1" as="geometry" />
        </mxCell>
        <mxCell id="gkNS_IapdHRCTGmgCiwo-38" value="&lt;div&gt;customerForInsert = MappingToDb(tmsOrder, createOrderCommand)&lt;/div&gt;&lt;div&gt;db.M3plcustomer.insert(customerForInsert)&lt;/div&gt;" style="rounded=0;whiteSpace=wrap;html=1;" parent="1" vertex="1">
          <mxGeometry x="149.40999999999997" y="7070" width="388.57" height="50" as="geometry" />
        </mxCell>
        <mxCell id="gkNS_IapdHRCTGmgCiwo-49" style="edgeStyle=orthogonalEdgeStyle;rounded=0;orthogonalLoop=1;jettySize=auto;html=1;exitX=0.5;exitY=1;exitDx=0;exitDy=0;entryX=0;entryY=0.5;entryDx=0;entryDy=0;" parent="1" source="gkNS_IapdHRCTGmgCiwo-39" target="gkNS_IapdHRCTGmgCiwo-29" edge="1">
          <mxGeometry relative="1" as="geometry" />
        </mxCell>
        <mxCell id="gkNS_IapdHRCTGmgCiwo-39" value="&lt;div&gt;customerForUpdate = MappingToDb(tmsOrder, createOrderCommand)&lt;br&gt;&lt;/div&gt;&lt;div&gt;db.M3plcustomer.update(customerForUpdate)&lt;/div&gt;" style="rounded=0;whiteSpace=wrap;html=1;" parent="1" vertex="1">
          <mxGeometry x="-538.9499999999998" y="7070" width="388.57" height="50" as="geometry" />
        </mxCell>
        <mxCell id="gkNS_IapdHRCTGmgCiwo-40" value="T" style="text;html=1;align=center;verticalAlign=middle;resizable=0;points=[];autosize=1;strokeColor=none;fillColor=none;" parent="1" vertex="1">
          <mxGeometry x="140.98999999999998" y="6958" width="30" height="30" as="geometry" />
        </mxCell>
        <mxCell id="gkNS_IapdHRCTGmgCiwo-41" value="F" style="text;html=1;align=center;verticalAlign=middle;resizable=0;points=[];autosize=1;strokeColor=none;fillColor=none;" parent="1" vertex="1">
          <mxGeometry x="-144.93" y="6958" width="30" height="30" as="geometry" />
        </mxCell>
        <mxCell id="gkNS_IapdHRCTGmgCiwo-42" style="edgeStyle=orthogonalEdgeStyle;rounded=0;orthogonalLoop=1;jettySize=auto;html=1;exitX=0;exitY=0.5;exitDx=0;exitDy=0;entryX=0.478;entryY=-0.06;entryDx=0;entryDy=0;entryPerimeter=0;" parent="1" source="gkNS_IapdHRCTGmgCiwo-33" target="gkNS_IapdHRCTGmgCiwo-39" edge="1">
          <mxGeometry relative="1" as="geometry" />
        </mxCell>
        <mxCell id="gkNS_IapdHRCTGmgCiwo-43" style="edgeStyle=orthogonalEdgeStyle;rounded=0;orthogonalLoop=1;jettySize=auto;html=1;exitX=1;exitY=0.5;exitDx=0;exitDy=0;entryX=0.564;entryY=0.002;entryDx=0;entryDy=0;entryPerimeter=0;" parent="1" source="gkNS_IapdHRCTGmgCiwo-33" target="gkNS_IapdHRCTGmgCiwo-38" edge="1">
          <mxGeometry relative="1" as="geometry" />
        </mxCell>
        <mxCell id="gkNS_IapdHRCTGmgCiwo-54" style="edgeStyle=orthogonalEdgeStyle;rounded=0;orthogonalLoop=1;jettySize=auto;html=1;exitX=0;exitY=0.5;exitDx=0;exitDy=0;entryX=0.5;entryY=0;entryDx=0;entryDy=0;" parent="1" source="gkNS_IapdHRCTGmgCiwo-51" target="gkNS_IapdHRCTGmgCiwo-53" edge="1">
          <mxGeometry relative="1" as="geometry" />
        </mxCell>
        <mxCell id="gkNS_IapdHRCTGmgCiwo-55" style="edgeStyle=orthogonalEdgeStyle;rounded=0;orthogonalLoop=1;jettySize=auto;html=1;exitX=1;exitY=0.5;exitDx=0;exitDy=0;entryX=0.5;entryY=0;entryDx=0;entryDy=0;" parent="1" source="gkNS_IapdHRCTGmgCiwo-51" target="gkNS_IapdHRCTGmgCiwo-30" edge="1">
          <mxGeometry relative="1" as="geometry" />
        </mxCell>
        <mxCell id="gkNS_IapdHRCTGmgCiwo-51" value="&lt;div&gt;customerAddress is null&lt;/div&gt;" style="rhombus;whiteSpace=wrap;html=1;fillColor=none;" parent="1" vertex="1">
          <mxGeometry x="-138.42" y="7270" width="276.85" height="80" as="geometry" />
        </mxCell>
        <mxCell id="gkNS_IapdHRCTGmgCiwo-60" style="edgeStyle=orthogonalEdgeStyle;rounded=0;orthogonalLoop=1;jettySize=auto;html=1;" parent="1" source="gkNS_IapdHRCTGmgCiwo-53" target="gkNS_IapdHRCTGmgCiwo-59" edge="1">
          <mxGeometry relative="1" as="geometry" />
        </mxCell>
        <mxCell id="gkNS_IapdHRCTGmgCiwo-53" value="&lt;div&gt;&lt;span style=&quot;background-color: transparent; color: light-dark(rgb(0, 0, 0), rgb(255, 255, 255));&quot;&gt;customerAddressForUpdate = MappingToDb(tmsOrder, createOrderCommand)&lt;/span&gt;&lt;br&gt;&lt;/div&gt;&lt;div&gt;db.M3pladdress.update(customerAddressForUpdate)&lt;/div&gt;" style="rounded=0;whiteSpace=wrap;html=1;" parent="1" vertex="1">
          <mxGeometry x="-623.1" y="7370" width="492.32" height="50" as="geometry" />
        </mxCell>
        <mxCell id="gkNS_IapdHRCTGmgCiwo-56" value="T" style="text;html=1;align=center;verticalAlign=middle;resizable=0;points=[];autosize=1;strokeColor=none;fillColor=none;" parent="1" vertex="1">
          <mxGeometry x="130.92000000000002" y="7270" width="30" height="30" as="geometry" />
        </mxCell>
        <mxCell id="gkNS_IapdHRCTGmgCiwo-57" value="F" style="text;html=1;align=center;verticalAlign=middle;resizable=0;points=[];autosize=1;strokeColor=none;fillColor=none;" parent="1" vertex="1">
          <mxGeometry x="-180.38" y="7270" width="30" height="30" as="geometry" />
        </mxCell>
        <mxCell id="gkNS_IapdHRCTGmgCiwo-64" style="edgeStyle=orthogonalEdgeStyle;rounded=0;orthogonalLoop=1;jettySize=auto;html=1;exitX=0.5;exitY=1;exitDx=0;exitDy=0;" parent="1" source="gkNS_IapdHRCTGmgCiwo-59" edge="1">
          <mxGeometry relative="1" as="geometry">
            <mxPoint y="7560" as="targetPoint" />
          </mxGeometry>
        </mxCell>
        <mxCell id="gkNS_IapdHRCTGmgCiwo-59" value="&lt;div&gt;order3plForInsert = MappingDataToDb(tmsOrder, createOrderCommand)&lt;/div&gt;&lt;div&gt;db.D3plorder.Insert(order3plForInsert)&lt;/div&gt;" style="rounded=0;whiteSpace=wrap;html=1;" parent="1" vertex="1">
          <mxGeometry x="-218.42000000000002" y="7490" width="436.83" height="40" as="geometry" />
        </mxCell>
        <mxCell id="gkNS_IapdHRCTGmgCiwo-71" value="&lt;div&gt;the old logic isn&#39;t changed&lt;br&gt;&lt;/div&gt;" style="rounded=0;whiteSpace=wrap;html=1;fillColor=#fa6800;fontColor=#000000;strokeColor=#C73500;" parent="1" vertex="1">
          <mxGeometry x="-155" y="170" width="154.45" height="30" as="geometry" />
        </mxCell>
        <mxCell id="gkNS_IapdHRCTGmgCiwo-72" value="next setDataToView(validate)" style="rounded=0;whiteSpace=wrap;html=1;fillColor=#0050ef;fontColor=#ffffff;strokeColor=#001DBC;" parent="1" vertex="1">
          <mxGeometry x="-123.18000000000002" y="640" width="263.61" height="40" as="geometry" />
        </mxCell>
        <mxCell id="gkNS_IapdHRCTGmgCiwo-74" value="F" style="text;html=1;align=center;verticalAlign=middle;resizable=0;points=[];autosize=1;strokeColor=none;fillColor=none;" parent="1" vertex="1">
          <mxGeometry x="194" y="630" width="30" height="30" as="geometry" />
        </mxCell>
        <mxCell id="gkNS_IapdHRCTGmgCiwo-78" style="edgeStyle=orthogonalEdgeStyle;rounded=0;orthogonalLoop=1;jettySize=auto;html=1;exitX=1;exitY=0.5;exitDx=0;exitDy=0;entryX=0;entryY=0.5;entryDx=0;entryDy=0;entryPerimeter=0;endArrow=none;startFill=0;" parent="1" source="LL-gX-i_un-LDWt7gdUC-57" target="LL-gX-i_un-LDWt7gdUC-62" edge="1">
          <mxGeometry relative="1" as="geometry" />
        </mxCell>
        <mxCell id="gkNS_IapdHRCTGmgCiwo-80" value="&lt;div&gt;endpoint path:&lt;/div&gt;/3pl/api/OrderType3PL/?alias={alias}&amp;amp;orderType={orderType}&amp;amp;bucode={buCode}" style="text;html=1;align=center;verticalAlign=middle;resizable=0;points=[];autosize=1;strokeColor=#A50040;fillColor=#d80073;fontColor=#ffffff;" parent="1" vertex="1">
          <mxGeometry x="-450" y="2027" width="450" height="40" as="geometry" />
        </mxCell>
        <mxCell id="gkNS_IapdHRCTGmgCiwo-81" style="edgeStyle=orthogonalEdgeStyle;rounded=0;orthogonalLoop=1;jettySize=auto;html=1;exitX=0;exitY=0.5;exitDx=0;exitDy=0;entryX=1.007;entryY=0.558;entryDx=0;entryDy=0;entryPerimeter=0;endArrow=none;startFill=0;" parent="1" source="LL-gX-i_un-LDWt7gdUC-60" target="gkNS_IapdHRCTGmgCiwo-80" edge="1">
          <mxGeometry relative="1" as="geometry" />
        </mxCell>
        <mxCell id="gkNS_IapdHRCTGmgCiwo-84" style="edgeStyle=orthogonalEdgeStyle;rounded=0;orthogonalLoop=1;jettySize=auto;html=1;exitX=1;exitY=0.5;exitDx=0;exitDy=0;entryX=0;entryY=0.508;entryDx=0;entryDy=0;entryPerimeter=0;endArrow=none;startFill=0;" parent="1" source="LL-gX-i_un-LDWt7gdUC-86" target="LL-gX-i_un-LDWt7gdUC-87" edge="1">
          <mxGeometry relative="1" as="geometry" />
        </mxCell>
        <mxCell id="gkNS_IapdHRCTGmgCiwo-85" style="edgeStyle=orthogonalEdgeStyle;rounded=0;orthogonalLoop=1;jettySize=auto;html=1;exitX=1;exitY=0.5;exitDx=0;exitDy=0;entryX=-0.007;entryY=0.517;entryDx=0;entryDy=0;entryPerimeter=0;endArrow=none;startFill=0;" parent="1" source="LL-gX-i_un-LDWt7gdUC-106" target="LL-gX-i_un-LDWt7gdUC-108" edge="1">
          <mxGeometry relative="1" as="geometry" />
        </mxCell>
        <mxCell id="gkNS_IapdHRCTGmgCiwo-86" style="edgeStyle=orthogonalEdgeStyle;rounded=0;orthogonalLoop=1;jettySize=auto;html=1;exitX=1;exitY=0.5;exitDx=0;exitDy=0;entryX=0.003;entryY=0.557;entryDx=0;entryDy=0;entryPerimeter=0;endArrow=none;startFill=0;" parent="1" source="LL-gX-i_un-LDWt7gdUC-129" target="LL-gX-i_un-LDWt7gdUC-130" edge="1">
          <mxGeometry relative="1" as="geometry" />
        </mxCell>
        <mxCell id="gkNS_IapdHRCTGmgCiwo-87" style="edgeStyle=orthogonalEdgeStyle;rounded=0;orthogonalLoop=1;jettySize=auto;html=1;exitX=1;exitY=0.5;exitDx=0;exitDy=0;entryX=-0.005;entryY=0.588;entryDx=0;entryDy=0;entryPerimeter=0;endArrow=none;startFill=0;" parent="1" source="LL-gX-i_un-LDWt7gdUC-144" target="LL-gX-i_un-LDWt7gdUC-151" edge="1">
          <mxGeometry relative="1" as="geometry" />
        </mxCell>
        <mxCell id="gkNS_IapdHRCTGmgCiwo-88" style="edgeStyle=orthogonalEdgeStyle;rounded=0;orthogonalLoop=1;jettySize=auto;html=1;exitX=1;exitY=0.5;exitDx=0;exitDy=0;entryX=0;entryY=0.552;entryDx=0;entryDy=0;entryPerimeter=0;endArrow=none;startFill=0;" parent="1" source="LL-gX-i_un-LDWt7gdUC-150" target="LL-gX-i_un-LDWt7gdUC-155" edge="1">
          <mxGeometry relative="1" as="geometry" />
        </mxCell>
        <mxCell id="gkNS_IapdHRCTGmgCiwo-91" style="edgeStyle=orthogonalEdgeStyle;rounded=0;orthogonalLoop=1;jettySize=auto;html=1;exitX=1;exitY=0.5;exitDx=0;exitDy=0;entryX=0;entryY=0.506;entryDx=0;entryDy=0;entryPerimeter=0;endArrow=none;startFill=0;" parent="1" source="WpTLxcSnzzfyFKcX9dQU-42" target="WpTLxcSnzzfyFKcX9dQU-43" edge="1">
          <mxGeometry relative="1" as="geometry" />
        </mxCell>
        <mxCell id="gkNS_IapdHRCTGmgCiwo-99" style="edgeStyle=orthogonalEdgeStyle;rounded=0;orthogonalLoop=1;jettySize=auto;html=1;" parent="1" source="gkNS_IapdHRCTGmgCiwo-95" edge="1">
          <mxGeometry relative="1" as="geometry">
            <mxPoint x="450" y="310" as="targetPoint" />
          </mxGeometry>
        </mxCell>
        <mxCell id="gkNS_IapdHRCTGmgCiwo-95" value="next orderRequest" style="rounded=0;whiteSpace=wrap;html=1;fillColor=#0050ef;fontColor=#ffffff;strokeColor=#001DBC;" parent="1" vertex="1">
          <mxGeometry x="510" y="290" width="150.04" height="40" as="geometry" />
        </mxCell>
        <mxCell id="gkNS_IapdHRCTGmgCiwo-101" value="next orderRequest" style="rounded=0;whiteSpace=wrap;html=1;fillColor=#0050ef;fontColor=#ffffff;strokeColor=#001DBC;" parent="1" vertex="1">
          <mxGeometry x="-74.45000000000005" y="7640" width="150.04" height="40" as="geometry" />
        </mxCell>
        <mxCell id="gkNS_IapdHRCTGmgCiwo-103" value="end" style="ellipse;whiteSpace=wrap;html=1;" parent="1" vertex="1">
          <mxGeometry x="685" y="340" width="90" height="40" as="geometry" />
        </mxCell>
        <mxCell id="gkNS_IapdHRCTGmgCiwo-105" value="F" style="text;html=1;align=center;verticalAlign=middle;resizable=0;points=[];autosize=1;strokeColor=none;fillColor=none;" parent="1" vertex="1">
          <mxGeometry x="555" y="358" width="30" height="30" as="geometry" />
        </mxCell>
        <mxCell id="gkNS_IapdHRCTGmgCiwo-106" value="this is next loop" style="rounded=0;whiteSpace=wrap;html=1;fillColor=#0050ef;fontColor=#ffffff;strokeColor=#001DBC;" parent="1" vertex="1">
          <mxGeometry x="-153.01" y="120" width="150.04" height="30" as="geometry" />
        </mxCell>
        <mxCell id="gkNS_IapdHRCTGmgCiwo-107" value="F" style="text;html=1;align=center;verticalAlign=middle;resizable=0;points=[];autosize=1;strokeColor=none;fillColor=none;" parent="1" vertex="1">
          <mxGeometry x="215" y="4718" width="30" height="30" as="geometry" />
        </mxCell>
        <mxCell id="gkNS_IapdHRCTGmgCiwo-112" style="edgeStyle=orthogonalEdgeStyle;rounded=0;orthogonalLoop=1;jettySize=auto;html=1;exitX=0.5;exitY=1;exitDx=0;exitDy=0;" parent="1" source="gkNS_IapdHRCTGmgCiwo-111" edge="1">
          <mxGeometry relative="1" as="geometry">
            <mxPoint x="2.5" y="7630" as="targetPoint" />
          </mxGeometry>
        </mxCell>
        <mxCell id="gkNS_IapdHRCTGmgCiwo-111" value="&lt;div&gt;eventPayload = prepareEventPayload()&lt;/div&gt;&lt;div&gt;sendEvent(eventPayload)&lt;/div&gt;" style="rounded=0;whiteSpace=wrap;html=1;" parent="1" vertex="1">
          <mxGeometry x="-215.85000000000002" y="7570" width="436.83" height="40" as="geometry" />
        </mxCell>
        <mxCell id="Vpgx6mXPmqAcxmZILDP9-1" value="Meaning of color" style="text;html=1;align=center;verticalAlign=middle;resizable=0;points=[];autosize=1;strokeColor=none;fillColor=none;" vertex="1" parent="1">
          <mxGeometry x="-131.2" y="70" width="110" height="30" as="geometry" />
        </mxCell>
        <mxCell id="Vpgx6mXPmqAcxmZILDP9-4" style="edgeStyle=orthogonalEdgeStyle;rounded=0;orthogonalLoop=1;jettySize=auto;html=1;exitX=1;exitY=0.5;exitDx=0;exitDy=0;entryX=-0.006;entryY=0.503;entryDx=0;entryDy=0;entryPerimeter=0;endArrow=none;startFill=0;" edge="1" parent="1" source="LL-gX-i_un-LDWt7gdUC-3" target="LL-gX-i_un-LDWt7gdUC-89">
          <mxGeometry relative="1" as="geometry" />
        </mxCell>
      </root>
    </mxGraphModel>
  </diagram>
</mxfile>
